{"glyphs":{"0":{"ha":772,"x_min":null,"x_max":null,"o":"m 718 490 b 379 1006 718 769 668 1006 b 40 496 97 1006 40 779 b 379 -12 40 221 94 -12 b 718 490 579 -12 718 101 z m 524 494 b 379 154 524 218 483 154 b 235 497 281 154 235 204 b 379 849 235 783 275 849 b 524 494 475 849 524 800 z "},"1":{"ha":772,"x_min":null,"x_max":null,"o":"m 525 0 l 525 985 l 396 985 b 94 808 365 868 264 808 l 94 679 l 331 679 l 331 0 z "},"2":{"ha":772,"x_min":null,"x_max":null,"o":"m 715 693 b 378 1006 715 883 585 1006 b 54 676 174 1006 54 885 b 56 642 54 668 54 657 l 242 642 l 242 674 b 382 847 242 783 293 847 b 521 689 468 847 521 788 b 269 383 521 581 486 538 b 42 0 103 269 51 182 l 711 0 l 711 174 l 294 174 b 494 360 319 226 350 254 b 715 693 665 485 715 560 z "},"3":{"ha":772,"x_min":null,"x_max":null,"o":"m 717 303 b 556 538 717 418 667 483 b 685 738 647 594 685 647 b 372 1006 685 901 563 1006 b 53 692 182 1006 53 906 l 53 675 l 233 675 b 368 849 233 797 272 849 b 490 719 446 849 490 801 b 318 581 490 621 433 581 l 301 581 l 301 450 b 522 303 447 450 522 408 b 376 154 522 217 461 154 b 229 308 285 154 229 207 l 40 308 b 372 -12 40 111 171 -12 b 717 303 582 -12 717 111 z "},"4":{"ha":772,"x_min":null,"x_max":null,"o":"m 725 218 l 725 379 l 622 379 l 622 985 l 393 985 l 33 382 l 33 218 l 428 218 l 428 0 l 622 0 l 622 218 z m 428 379 l 171 379 l 428 800 z "},"5":{"ha":772,"x_min":null,"x_max":null,"o":"m 718 335 b 411 665 718 536 593 665 b 240 606 346 665 297 649 l 272 811 l 679 811 l 679 985 l 153 985 l 65 436 l 240 436 b 365 511 261 485 306 511 b 524 331 464 511 524 450 b 365 154 524 215 463 154 b 229 276 281 154 229 197 l 38 276 b 363 -12 38 104 171 -12 b 718 335 574 -12 718 122 z "},"6":{"ha":772,"x_min":null,"x_max":null,"o":"m 721 339 b 435 649 721 528 604 649 b 239 561 354 649 300 625 b 403 849 247 760 282 849 b 524 761 465 849 499 824 l 704 761 b 408 1006 679 924 569 1006 b 44 468 171 1006 44 822 b 115 124 44 299 65 203 b 392 -12 172 32 275 -12 b 721 339 588 -12 721 125 z m 536 326 b 386 154 536 221 472 154 b 236 322 297 154 236 218 b 388 496 236 431 297 496 b 536 326 478 496 536 435 z "},"7":{"ha":772,"x_min":null,"x_max":null,"o":"m 733 832 l 733 985 l 40 985 l 40 811 l 531 811 b 314 482 471 747 354 568 b 185 0 247 339 210 210 l 381 0 b 733 832 399 311 500 550 z "},"8":{"ha":772,"x_min":null,"x_max":null,"o":"m 729 293 b 568 536 729 410 682 475 b 696 739 656 583 696 642 b 381 1006 696 893 563 1006 b 64 738 197 1006 64 893 b 192 536 64 643 103 583 b 31 293 78 475 31 410 b 381 -12 31 107 174 -12 b 729 293 586 -12 729 107 z m 528 719 b 382 590 528 644 467 590 b 235 721 296 590 235 644 b 382 849 235 796 294 849 b 528 719 469 849 526 796 z m 535 301 b 379 154 535 207 474 154 b 225 304 285 154 225 207 b 379 458 225 404 286 458 b 535 301 475 458 535 404 z "},"9":{"ha":772,"x_min":null,"x_max":null,"o":"m 717 535 b 371 1006 717 879 572 1006 b 39 669 174 1006 39 875 b 333 338 39 467 158 338 b 522 435 421 338 454 358 b 360 154 522 247 469 154 b 240 250 292 154 244 192 l 53 250 b 354 -12 57 99 185 -12 b 717 535 601 -12 717 186 z m 518 669 b 368 499 518 561 457 499 b 224 672 279 499 224 560 b 365 847 224 786 279 847 b 518 669 460 847 518 785 z "}," ":{"ha":386,"x_min":null,"x_max":null,"o":""},"!":{"ha":463,"x_min":null,"x_max":null,"o":"m 336 717 l 336 1008 l 128 1008 l 128 717 l 185 288 l 278 288 z m 336 0 l 336 203 l 128 203 l 128 0 z "},"\"":{"ha":658,"x_min":null,"x_max":null,"o":"m 261 832 l 261 1013 l 69 1013 l 69 832 l 125 653 l 203 653 z m 589 832 l 589 1013 l 397 1013 l 397 832 l 453 653 l 531 653 z "},"#":{"ha":772,"x_min":null,"x_max":null,"o":"m 768 589 l 768 726 l 643 726 l 690 968 l 544 968 l 497 726 l 354 726 l 401 968 l 256 968 l 208 726 l 43 726 l 43 589 l 181 589 l 139 376 l 4 376 l 4 239 l 111 239 l 56 -44 l 203 -44 l 258 239 l 401 239 l 346 -44 l 492 -44 l 547 239 l 713 239 l 713 376 l 574 376 l 617 589 z m 469 589 l 428 376 l 285 376 l 326 589 z "},"$":{"ha":772,"x_min":null,"x_max":null,"o":"m 732 271 b 432 565 732 424 647 506 l 432 844 b 540 692 503 835 540 776 l 718 692 b 432 985 718 865 607 975 l 432 1060 l 338 1060 l 338 985 b 54 711 158 968 54 867 b 338 415 54 557 150 458 l 338 119 b 213 288 260 133 217 190 l 31 288 l 31 275 b 150 35 31 174 72 90 b 338 -29 203 -3 254 -21 l 338 -175 l 432 -175 l 432 -29 b 613 28 508 -21 567 -1 b 732 271 688 76 732 167 z m 338 593 b 225 717 260 618 225 656 b 338 844 225 788 261 829 z m 549 254 b 432 119 549 185 510 139 l 432 392 b 549 254 510 368 549 321 z "},"%":{"ha":1235,"x_min":null,"x_max":null,"o":"m 542 718 b 286 974 542 861 429 974 b 31 721 146 974 31 860 b 286 468 31 582 146 468 b 542 718 425 468 542 582 z m 404 719 b 286 604 404 657 350 604 b 168 721 221 604 168 657 b 286 836 168 783 221 836 b 404 719 351 836 404 785 z m 961 985 l 814 985 l 264 -28 l 413 -28 z m 1199 232 b 943 489 1199 376 1086 489 b 688 236 803 489 688 375 b 943 -18 688 96 803 -18 b 1199 232 1082 -18 1199 96 z m 1061 233 b 943 118 1061 171 1007 118 b 825 235 878 118 825 171 b 943 351 825 299 878 351 b 1061 233 1008 351 1061 299 z "},"&":{"ha":1003,"x_min":null,"x_max":null,"o":"m 964 0 l 793 214 b 888 496 846 278 888 390 l 888 518 l 731 518 l 731 504 b 689 344 731 444 719 403 l 528 544 b 690 789 651 629 690 689 b 443 1004 690 918 592 1004 b 181 772 294 1004 181 903 b 239 625 179 721 200 671 l 278 578 b 294 557 281 575 286 568 b 76 268 132 472 76 399 b 406 -32 76 88 208 -32 b 676 78 500 -32 564 -7 l 740 0 z m 575 206 b 408 129 510 156 451 129 b 261 292 333 129 261 208 b 321 403 261 336 282 379 l 386 443 z m 524 772 b 440 653 524 724 496 683 b 364 786 371 740 364 751 b 444 853 364 825 397 853 b 524 772 494 853 524 824 z "},"'":{"ha":331,"x_min":null,"x_max":null,"o":"m 261 832 l 261 1013 l 69 1013 l 69 832 l 125 653 l 203 653 z "},"(":{"ha":463,"x_min":null,"x_max":null,"o":"m 421 -278 b 226 368 274 8 226 164 b 421 1013 226 571 274 729 l 282 1013 b 56 368 122 772 56 581 b 282 -278 56 154 122 -37 z "},")":{"ha":463,"x_min":null,"x_max":null,"o":"m 396 367 b 169 1013 396 581 329 772 l 31 1013 b 225 367 178 726 225 571 b 31 -278 225 164 178 6 l 169 -278 b 396 367 329 -37 396 154 z "},"*":{"ha":540,"x_min":null,"x_max":null,"o":"m 496 804 l 465 901 l 314 851 l 314 1013 l 214 1013 l 214 851 l 63 901 l 32 806 l 183 756 l 90 625 l 171 565 l 264 696 l 357 565 l 438 625 l 344 756 z "},"+":{"ha":811,"x_min":null,"x_max":null,"o":"m 728 278 l 728 417 l 475 417 l 475 669 l 336 669 l 336 417 l 83 417 l 83 278 l 336 278 l 336 25 l 475 25 l 475 278 z "},",":{"ha":386,"x_min":null,"x_max":null,"o":"m 297 13 l 297 203 l 89 203 l 89 0 l 208 0 l 208 -4 b 89 -164 208 -99 171 -147 l 89 -242 b 222 -190 146 -235 185 -219 b 297 13 278 -147 297 -96 z "},"-":{"ha":463,"x_min":null,"x_max":null,"o":"m 414 288 l 414 475 l 36 475 l 36 288 z "},".":{"ha":386,"x_min":null,"x_max":null,"o":"m 297 0 l 297 203 l 89 203 l 89 0 z "},"/":{"ha":386,"x_min":null,"x_max":null,"o":"m 404 992 l 269 992 l -17 -19 l 118 -19 z "},":":{"ha":463,"x_min":null,"x_max":null,"o":"m 336 0 l 336 203 l 128 203 l 128 0 z m 336 519 l 336 722 l 128 722 l 128 519 z "},";":{"ha":463,"x_min":null,"x_max":null,"o":"m 336 13 l 336 203 l 128 203 l 128 0 l 247 0 l 247 -4 b 128 -164 247 -99 210 -147 l 128 -242 b 261 -190 185 -235 224 -219 b 336 13 317 -147 336 -96 z m 336 519 l 336 722 l 128 722 l 128 519 z "},"<":{"ha":811,"x_min":null,"x_max":null,"o":"m 644 -146 l 644 35 l 275 347 l 644 660 l 644 840 l 122 400 l 122 294 z "},"=":{"ha":811,"x_min":null,"x_max":null,"o":"m 728 404 l 728 543 l 83 543 l 83 404 z m 728 151 l 728 290 l 83 290 l 83 151 z "},">":{"ha":811,"x_min":null,"x_max":null,"o":"m 644 294 l 644 400 l 122 840 l 122 660 l 492 347 l 122 35 l 122 -146 z "},"?":{"ha":849,"x_min":null,"x_max":null,"o":"m 767 714 b 421 1033 767 903 625 1033 b 83 668 219 1033 83 921 l 272 668 l 272 671 l 272 683 b 425 869 272 790 336 869 b 571 710 508 869 571 800 b 472 554 571 646 554 622 b 335 299 368 467 335 403 l 335 279 l 507 279 b 600 444 507 371 517 386 b 767 714 729 536 767 597 z m 529 0 l 529 203 l 321 203 l 321 0 z "},"@":{"ha":1354,"x_min":null,"x_max":null,"o":"m 1332 508 b 739 1029 1332 793 1064 1029 b 57 358 368 1029 57 721 b 690 -200 57 49 338 -200 b 1021 -136 792 -200 903 -181 l 971 -11 b 697 -56 843 -44 768 -56 b 211 379 424 -56 211 132 b 721 886 211 651 447 886 b 1175 492 967 886 1175 707 b 969 203 1175 347 1075 203 b 922 242 944 203 922 219 b 936 303 922 253 926 274 l 1039 707 l 885 707 l 867 649 b 706 735 828 706 774 735 b 367 342 515 735 367 547 b 607 75 367 189 471 75 b 789 153 674 75 731 99 b 946 68 811 97 865 68 b 1332 508 1171 68 1332 300 z m 804 500 b 628 201 797 350 736 201 b 515 340 565 201 515 263 b 699 608 515 479 594 608 b 804 507 758 608 804 565 z "},"A":{"ha":1003,"x_min":null,"x_max":null,"o":"m 976 0 l 626 1013 l 396 1013 l 36 0 l 249 0 l 317 204 l 696 204 l 763 0 z m 639 378 l 375 378 l 507 774 z "},"B":{"ha":1003,"x_min":null,"x_max":null,"o":"m 925 292 b 757 538 925 392 871 471 b 896 746 857 601 896 660 b 565 1013 896 889 776 1013 l 114 1013 l 114 0 l 569 0 b 925 292 806 0 925 125 z m 696 724 b 549 610 696 650 644 610 l 322 610 l 322 839 l 549 839 b 696 724 644 839 696 799 z m 725 304 b 571 174 725 219 672 174 l 322 174 l 322 436 l 571 436 b 725 304 672 436 725 390 z "},"C":{"ha":1003,"x_min":null,"x_max":null,"o":"m 951 346 l 749 346 b 525 158 736 217 654 158 b 269 503 364 158 269 282 b 532 851 269 726 368 851 b 749 669 644 851 718 800 l 947 669 b 525 1029 929 903 753 1029 b 61 506 239 1029 61 833 b 519 -17 61 181 238 -17 b 951 346 771 -17 939 114 z "},"D":{"ha":1003,"x_min":null,"x_max":null,"o":"m 946 507 b 822 896 946 663 903 800 b 503 1013 754 978 658 1013 l 107 1013 l 107 0 l 503 0 b 822 118 657 0 753 36 b 946 507 901 213 946 350 z m 738 506 b 503 174 738 283 660 174 l 315 174 l 315 839 l 503 839 b 738 506 660 839 738 729 z "},"E":{"ha":926,"x_min":null,"x_max":null,"o":"m 867 0 l 867 174 l 318 174 l 318 436 l 803 436 l 803 610 l 318 610 l 318 839 l 842 839 l 842 1013 l 110 1013 l 110 0 z "},"F":{"ha":849,"x_min":null,"x_max":null,"o":"m 814 839 l 814 1013 l 103 1013 l 103 0 l 311 0 l 311 436 l 754 436 l 754 610 l 311 610 l 311 839 z "},"G":{"ha":1081,"x_min":null,"x_max":null,"o":"m 988 0 l 988 544 l 582 544 l 582 371 l 813 371 b 556 161 799 244 679 161 b 267 510 388 161 267 301 b 550 851 267 728 374 851 b 792 689 664 851 751 807 l 988 689 b 549 1029 963 897 793 1029 b 58 507 257 1029 58 822 b 532 -17 58 200 258 -17 b 838 139 668 -17 760 32 l 863 0 z "},"H":{"ha":1003,"x_min":null,"x_max":null,"o":"m 913 0 l 913 1013 l 704 1013 l 704 633 l 303 633 l 303 1013 l 94 1013 l 94 0 l 303 0 l 303 460 l 704 460 l 704 0 z "},"I":{"ha":386,"x_min":null,"x_max":null,"o":"m 296 0 l 296 1013 l 88 1013 l 88 0 z "},"J":{"ha":772,"x_min":null,"x_max":null,"o":"m 675 279 l 675 1013 l 467 1013 l 467 279 b 354 161 467 203 426 161 b 242 293 275 161 242 200 l 242 375 l 33 375 l 33 290 b 350 -17 33 89 161 -17 b 675 279 557 -17 675 90 z "},"K":{"ha":1003,"x_min":null,"x_max":null,"o":"m 996 0 l 549 576 l 953 1013 l 707 1013 l 311 568 l 311 1013 l 103 1013 l 103 0 l 311 0 l 311 339 l 415 447 l 747 0 z "},"L":{"ha":849,"x_min":null,"x_max":null,"o":"m 804 0 l 804 174 l 319 174 l 319 1013 l 111 1013 l 111 0 z "},"M":{"ha":1157,"x_min":null,"x_max":null,"o":"m 1078 0 l 1078 1013 l 764 1013 l 586 207 l 403 1013 l 92 1013 l 92 0 l 300 0 l 300 789 l 482 0 l 690 0 l 869 789 l 869 0 z "},"N":{"ha":1003,"x_min":null,"x_max":null,"o":"m 918 0 l 918 1013 l 710 1013 l 710 324 l 308 1013 l 94 1013 l 94 0 l 303 0 l 303 700 l 710 0 z "},"O":{"ha":1081,"x_min":null,"x_max":null,"o":"m 1031 500 b 542 1029 1031 806 838 1029 b 56 507 244 1029 56 797 b 543 -17 56 204 246 -17 b 1031 500 838 -17 1031 204 z m 822 501 b 543 161 822 294 710 161 b 264 507 375 161 264 294 b 543 851 264 711 375 851 b 822 501 714 851 822 713 z "},"P":{"ha":926,"x_min":null,"x_max":null,"o":"m 879 699 b 553 1013 879 901 764 1013 l 106 1013 l 106 0 l 314 0 l 314 361 l 574 361 b 879 699 760 361 879 493 z m 671 686 b 508 535 671 583 619 535 l 314 535 l 314 839 l 508 839 b 671 686 619 839 671 790 z "},"Q":{"ha":1081,"x_min":null,"x_max":null,"o":"m 1035 53 l 924 158 b 1035 510 992 242 1035 374 b 547 1029 1035 808 843 1029 b 60 507 251 1029 60 811 b 547 -17 60 203 253 -17 b 810 53 651 -17 729 4 l 929 -60 z m 826 506 b 781 293 826 422 811 354 l 667 401 l 561 289 l 668 188 b 546 161 636 171 590 161 b 268 507 379 161 268 294 b 547 851 268 719 379 851 b 826 506 717 851 826 713 z "},"R":{"ha":1003,"x_min":null,"x_max":null,"o":"m 940 0 l 940 38 b 896 121 908 56 896 76 b 756 489 890 419 885 433 b 926 739 869 533 926 615 b 654 1013 926 896 833 1013 l 111 1013 l 111 0 l 319 0 l 319 401 l 558 401 b 688 281 649 401 688 365 l 685 174 b 717 0 685 79 690 49 z m 718 710 b 571 575 718 619 689 575 l 319 575 l 319 839 l 571 839 b 718 710 685 839 718 797 z "},"S":{"ha":926,"x_min":null,"x_max":null,"o":"m 879 304 b 611 575 879 464 799 539 l 453 606 b 261 738 304 635 261 664 b 436 863 261 814 329 863 b 649 704 568 863 649 807 l 843 704 b 446 1029 843 918 693 1029 b 63 718 203 1029 63 915 b 347 446 63 560 142 486 l 489 418 b 679 279 628 390 679 361 b 475 150 679 194 601 150 b 247 318 333 150 247 210 l 44 318 b 464 -17 44 101 206 -17 b 879 304 725 -17 879 99 z "},"T":{"ha":849,"x_min":null,"x_max":null,"o":"m 831 839 l 831 1013 l 19 1013 l 19 839 l 326 839 l 326 0 l 535 0 l 535 839 z "},"U":{"ha":1003,"x_min":null,"x_max":null,"o":"m 908 342 l 908 1013 l 700 1013 l 700 342 b 507 161 700 219 638 161 b 314 342 376 161 314 219 l 314 1013 l 106 1013 l 106 342 b 507 -17 106 103 275 -17 b 908 342 739 -17 908 103 z "},"V":{"ha":926,"x_min":null,"x_max":null,"o":"m 899 1013 l 689 1013 l 468 250 l 243 1013 l 33 1013 l 375 0 l 551 0 z "},"W":{"ha":1311,"x_min":null,"x_max":null,"o":"m 1294 1013 l 1074 1013 l 922 253 l 758 1013 l 553 1013 l 396 254 l 239 1013 l 18 1013 l 304 0 l 492 0 l 657 790 l 826 0 l 1014 0 z "},"X":{"ha":926,"x_min":null,"x_max":null,"o":"m 907 0 l 582 517 l 894 1013 l 653 1013 l 467 679 l 289 1013 l 42 1013 l 350 510 l 31 0 l 272 0 l 465 351 l 660 0 z "},"Y":{"ha":926,"x_min":null,"x_max":null,"o":"m 903 1013 l 669 1013 l 476 565 l 269 1013 l 38 1013 l 374 375 l 374 0 l 582 0 l 582 375 z "},"Z":{"ha":849,"x_min":null,"x_max":null,"o":"m 803 0 l 803 174 l 286 174 l 803 839 l 803 1013 l 42 1013 l 42 839 l 560 839 l 42 174 l 42 0 z "},"[":{"ha":463,"x_min":null,"x_max":null,"o":"m 428 -278 l 428 -136 l 272 -136 l 272 871 l 428 871 l 428 1013 l 92 1013 l 92 -278 z "},"\\":{"ha":386,"x_min":null,"x_max":null,"o":"m 424 -19 l 99 992 l -36 992 l 289 -19 z "},"]":{"ha":463,"x_min":null,"x_max":null,"o":"m 361 -278 l 361 1013 l 25 1013 l 25 871 l 181 871 l 181 -136 l 25 -136 l 25 -278 z "},"^":{"ha":811,"x_min":null,"x_max":null,"o":"m 725 375 l 488 965 l 314 965 l 85 375 l 240 375 l 400 792 l 568 375 z "},"_":{"ha":772,"x_min":null,"x_max":null,"o":"m 803 -262 l 803 -167 l -31 -167 l -31 -262 z "},"`":{"ha":463,"x_min":null,"x_max":null,"o":"m 300 831 l 203 1044 l -14 1044 l 161 831 z "},"a":{"ha":772,"x_min":null,"x_max":null,"o":"m 728 0 l 728 24 b 683 115 693 56 683 76 l 683 532 b 376 763 683 685 579 763 b 56 503 174 763 68 676 l 243 503 b 381 606 253 581 285 606 b 493 531 456 606 493 581 b 338 443 493 451 435 460 l 260 429 b 39 203 111 403 39 339 b 267 -12 39 57 142 -12 b 494 94 350 -12 426 24 b 517 0 494 56 499 22 z m 493 321 b 339 144 493 208 438 144 b 233 225 274 144 233 169 b 344 318 233 282 264 303 l 411 331 b 493 354 463 340 471 343 z "},"b":{"ha":849,"x_min":null,"x_max":null,"o":"m 799 365 b 483 763 799 578 681 763 b 276 653 390 763 324 728 l 276 1013 l 82 1013 l 82 0 l 276 0 l 276 86 b 483 -12 324 22 389 -12 b 799 365 663 -12 799 139 z m 604 374 b 440 150 604 238 536 150 b 276 378 342 150 276 235 b 440 600 276 514 343 600 b 604 374 536 600 604 513 z "},"c":{"ha":772,"x_min":null,"x_max":null,"o":"m 725 260 l 539 260 b 400 144 514 182 475 144 b 242 369 301 144 242 224 b 400 606 242 507 278 606 b 539 469 479 606 517 568 l 725 469 b 401 763 711 653 589 763 b 47 369 178 763 47 625 b 399 -12 47 122 176 -12 b 725 260 581 -12 707 100 z "},"d":{"ha":849,"x_min":null,"x_max":null,"o":"m 757 0 l 757 1013 l 563 1013 l 563 653 b 356 763 514 728 449 763 b 40 374 176 763 40 600 b 356 -12 40 161 157 -12 b 563 86 449 -12 514 22 l 563 0 z m 563 371 b 399 150 563 235 496 150 b 235 374 301 150 235 236 b 399 600 235 513 301 600 b 563 371 497 600 563 514 z "},"e":{"ha":772,"x_min":null,"x_max":null,"o":"m 729 347 b 378 763 729 606 599 763 b 31 365 163 763 31 617 b 374 -12 31 125 161 -12 b 721 211 542 -12 678 64 l 529 211 b 381 136 513 157 451 136 b 225 324 289 136 231 178 l 728 324 z m 526 453 l 228 453 b 375 614 240 557 289 614 b 526 453 458 614 517 560 z "},"f":{"ha":463,"x_min":null,"x_max":null,"o":"m 435 606 l 435 735 l 319 735 l 319 808 b 372 867 319 847 336 867 b 428 863 389 867 411 865 l 428 1008 b 317 1013 392 1011 343 1013 b 125 825 188 1013 125 951 l 125 735 l 19 735 l 19 606 l 125 606 l 125 0 l 319 0 l 319 606 z "},"g":{"ha":849,"x_min":null,"x_max":null,"o":"m 751 -25 l 751 750 l 567 750 l 567 635 b 358 763 508 724 444 763 b 47 367 181 763 47 599 b 354 -12 47 133 169 -12 b 567 86 442 -12 494 14 l 567 -25 b 401 -178 567 -115 499 -178 b 264 -90 328 -178 279 -147 l 63 -90 b 394 -303 65 -212 189 -303 b 751 -25 621 -303 751 -201 z m 569 369 b 397 150 569 233 499 150 b 242 369 306 150 242 233 b 400 600 242 511 306 600 b 569 369 497 600 569 508 z "},"h":{"ha":849,"x_min":null,"x_max":null,"o":"m 751 0 l 751 503 b 507 763 751 678 649 763 b 288 642 411 763 342 724 l 288 1013 l 93 1013 l 93 0 l 288 0 l 288 450 b 438 597 288 536 350 597 b 557 458 507 597 557 560 l 557 0 z "},"i":{"ha":386,"x_min":null,"x_max":null,"o":"m 288 0 l 288 750 l 93 750 l 93 0 z m 290 840 l 290 1035 l 96 1035 l 96 840 z "},"j":{"ha":386,"x_min":null,"x_max":null,"o":"m 292 -131 l 292 750 l 97 750 l 97 -87 b 40 -146 97 -131 82 -146 b 6 -140 28 -146 19 -144 l 6 -296 b 121 -303 44 -300 93 -303 b 292 -131 242 -303 292 -253 z m 292 840 l 292 1035 l 97 1035 l 97 840 z "},"k":{"ha":772,"x_min":null,"x_max":null,"o":"m 761 0 l 488 467 l 743 750 l 522 750 l 276 458 l 276 1013 l 82 1013 l 82 0 l 276 0 l 276 246 l 354 331 l 533 0 z "},"l":{"ha":386,"x_min":null,"x_max":null,"o":"m 288 0 l 288 1013 l 93 1013 l 93 0 z "},"m":{"ha":1235,"x_min":null,"x_max":null,"o":"m 1144 0 l 1144 531 b 906 763 1144 676 1056 763 b 686 651 811 763 744 729 b 482 763 650 722 575 763 b 276 657 396 763 340 733 l 276 750 l 83 750 l 83 0 l 278 0 l 278 450 b 411 597 278 542 328 597 b 517 500 476 597 517 560 l 517 0 l 711 0 l 711 450 b 844 597 711 542 761 597 b 950 500 910 597 950 560 l 950 0 z "},"n":{"ha":849,"x_min":null,"x_max":null,"o":"m 758 0 l 758 503 b 507 763 758 668 667 763 b 282 642 406 763 338 725 l 282 750 l 88 750 l 88 0 l 282 0 l 282 450 b 439 597 282 539 344 597 b 564 463 522 597 564 551 l 564 0 z "},"o":{"ha":849,"x_min":null,"x_max":null,"o":"m 790 369 b 418 763 790 624 653 763 b 49 375 189 763 49 621 b 419 -12 49 128 189 -12 b 790 369 647 -12 790 129 z m 596 372 b 419 144 596 232 524 144 b 243 375 314 144 243 232 b 419 606 243 518 314 606 b 596 372 526 606 596 519 z "},"p":{"ha":849,"x_min":null,"x_max":null,"o":"m 797 375 b 483 763 797 597 679 763 b 275 639 389 763 322 722 l 275 750 l 81 750 l 81 -303 l 275 -303 l 275 100 b 483 -12 322 17 389 -12 b 797 375 664 -12 797 147 z m 603 372 b 439 150 603 236 535 150 b 275 375 342 150 275 235 b 439 600 275 515 342 600 b 603 372 538 600 603 515 z "},"q":{"ha":849,"x_min":null,"x_max":null,"o":"m 756 -303 l 756 750 l 561 750 l 561 639 b 353 763 515 721 446 763 b 39 375 172 763 39 604 b 351 -12 39 150 160 -12 b 561 100 446 -12 515 18 l 561 -303 z m 561 371 b 397 150 561 235 494 150 b 233 375 300 150 233 235 b 397 600 233 515 300 600 b 561 371 496 600 561 517 z "},"r":{"ha":540,"x_min":null,"x_max":null,"o":"m 514 564 l 514 761 b 490 763 503 763 496 763 b 282 603 401 763 324 704 l 282 750 l 88 750 l 88 0 l 282 0 l 282 399 b 453 569 282 513 339 569 b 514 564 474 569 488 568 z "},"s":{"ha":772,"x_min":null,"x_max":null,"o":"m 722 222 l 722 232 b 575 411 722 318 674 382 l 329 482 b 261 540 275 497 261 510 b 374 610 261 582 306 610 b 514 508 467 610 513 576 l 701 508 b 375 763 699 667 576 763 b 67 513 185 763 67 667 b 231 328 67 421 92 371 l 463 256 b 528 204 511 240 528 225 b 383 140 528 158 474 140 b 231 238 294 140 247 157 l 40 238 b 394 -12 46 74 167 -12 b 722 222 606 -12 722 71 z "},"t":{"ha":463,"x_min":null,"x_max":null,"o":"m 418 0 l 418 136 b 374 132 399 133 388 132 b 310 214 322 132 310 147 l 310 606 l 418 606 l 418 735 l 310 735 l 310 936 l 115 936 l 115 735 l 19 735 l 19 606 l 115 606 l 115 161 b 306 -6 115 43 178 -6 b 418 0 349 -6 383 -1 z "},"u":{"ha":849,"x_min":null,"x_max":null,"o":"m 751 0 l 751 750 l 557 750 l 557 300 b 400 153 557 211 494 153 b 275 288 317 153 275 197 l 275 750 l 81 750 l 81 247 b 332 -12 81 82 172 -12 b 557 99 433 -12 501 25 l 557 0 z "},"v":{"ha":772,"x_min":null,"x_max":null,"o":"m 744 750 l 539 750 l 388 201 l 225 750 l 19 750 l 282 0 l 486 0 z "},"w":{"ha":1081,"x_min":null,"x_max":null,"o":"m 1064 750 l 863 750 l 749 225 l 636 750 l 442 750 l 328 225 l 208 750 l 7 750 l 218 0 l 418 0 l 538 529 l 650 0 l 851 0 z "},"x":{"ha":772,"x_min":null,"x_max":null,"o":"m 743 0 l 493 378 l 738 750 l 504 750 l 383 524 l 261 750 l 28 750 l 272 378 l 22 0 l 256 0 l 383 233 l 510 0 z "},"y":{"ha":772,"x_min":null,"x_max":null,"o":"m 747 750 l 547 750 l 392 204 l 226 750 l 13 750 l 292 -32 l 292 -36 b 171 -161 292 -107 239 -161 b 119 -153 156 -161 144 -160 l 119 -299 b 189 -304 149 -303 165 -304 b 439 -137 319 -304 388 -281 z "},"z":{"ha":694,"x_min":null,"x_max":null,"o":"m 650 0 l 650 157 l 269 157 l 638 593 l 638 750 l 54 750 l 54 593 l 400 593 l 29 157 l 29 0 z "},"{":{"ha":540,"x_min":null,"x_max":null,"o":"m 440 -278 l 440 -140 l 389 -140 b 326 -50 342 -140 326 -118 l 326 221 b 192 374 326 322 296 357 b 326 525 296 389 326 424 l 326 796 b 389 875 326 851 346 875 l 440 875 l 440 1013 l 335 1013 b 164 818 235 1013 164 932 l 164 525 b 74 438 164 467 136 438 l 51 438 l 51 310 l 57 308 b 164 208 146 308 164 285 l 164 -83 b 335 -278 164 -197 235 -278 z "},"|":{"ha":389,"x_min":null,"x_max":null,"o":"m 264 -278 l 264 1013 l 125 1013 l 125 -278 z "},"}":{"ha":540,"x_min":null,"x_max":null,"o":"m 489 297 l 489 425 l 483 426 b 376 526 394 426 376 450 l 376 818 b 206 1013 376 932 306 1013 l 100 1013 l 100 875 l 151 875 b 214 785 199 875 214 853 l 214 514 b 349 361 214 413 244 378 b 214 210 244 346 214 311 l 214 -61 b 151 -140 214 -117 194 -140 l 100 -140 l 100 -278 l 206 -278 b 376 -83 306 -278 376 -197 l 376 210 b 467 297 376 269 404 296 l 483 297 b 489 297 485 297 488 297 z "},"~":{"ha":811,"x_min":null,"x_max":null,"o":"m 721 400 l 613 400 b 539 308 610 325 589 308 b 454 343 510 308 490 317 l 375 401 b 260 436 342 425 304 436 b 83 235 150 436 90 369 l 192 235 b 265 325 194 307 215 325 b 350 292 294 325 318 315 l 429 233 b 544 197 464 207 500 197 b 721 400 656 197 713 264 z "}," ":{"ha":386,"x_min":null,"x_max":null,"o":""},"¡":{"ha":463,"x_min":null,"x_max":null,"o":"m 336 -258 l 336 33 l 279 463 l 186 463 l 128 33 l 128 -258 z m 336 547 l 336 750 l 128 750 l 128 547 z "},"¢":{"ha":772,"x_min":null,"x_max":null,"o":"m 725 260 l 539 260 b 421 126 518 175 485 136 l 421 604 b 539 469 486 594 521 556 l 725 469 b 421 763 714 642 592 760 l 421 881 l 360 881 l 360 761 b 50 360 158 740 50 599 b 360 -31 50 129 167 -18 l 360 -172 l 421 -172 l 421 -32 b 725 260 586 -25 710 93 z m 360 131 b 244 361 285 153 244 232 b 360 601 244 499 285 582 z "},"£":{"ha":772,"x_min":null,"x_max":null,"o":"m 746 31 l 689 182 b 543 142 633 154 589 142 b 367 171 493 142 382 171 b 211 119 326 171 299 161 b 372 357 329 213 372 276 b 351 439 372 385 368 403 l 521 439 l 521 515 l 328 515 b 286 606 319 536 310 557 b 249 713 253 674 249 685 b 385 839 249 786 306 839 b 540 688 463 839 525 806 l 542 672 l 725 672 b 383 993 706 894 599 993 b 53 717 181 993 53 869 b 126 515 53 656 64 625 l 43 515 l 43 439 l 167 439 b 196 321 189 385 196 356 b 43 111 196 240 160 190 l 119 -29 b 271 13 181 1 218 13 b 544 -32 319 13 497 -32 b 746 31 613 -32 668 -15 z "},"¤":{"ha":772,"x_min":null,"x_max":null,"o":"m 531 496 b 386 339 531 408 472 339 b 244 496 300 339 244 408 b 386 650 244 583 300 650 b 531 496 472 650 531 583 z m 776 197 l 640 333 b 686 496 667 374 686 432 b 640 656 686 557 667 615 l 776 792 l 685 883 l 549 747 b 386 793 508 774 450 793 b 224 747 325 793 267 774 l 88 883 l -4 792 l 132 656 b 89 496 108 618 89 557 b 132 333 89 432 106 376 l -4 197 l 88 106 l 224 242 b 386 196 267 215 325 196 b 549 242 450 196 508 215 l 685 106 z "},"¥":{"ha":772,"x_min":null,"x_max":null,"o":"m 767 978 l 579 978 l 393 625 l 200 978 l 7 978 l 289 488 l 97 488 l 97 406 l 299 406 l 299 332 l 97 332 l 97 250 l 299 250 l 299 0 l 493 0 l 493 250 l 690 250 l 690 332 l 493 332 l 493 406 l 690 406 l 690 488 l 500 488 z "},"¦":{"ha":389,"x_min":null,"x_max":null,"o":"m 264 496 l 264 1013 l 125 1013 l 125 496 z m 264 -278 l 264 239 l 125 239 l 125 -278 z "},"§":{"ha":772,"x_min":null,"x_max":null,"o":"m 719 364 b 585 576 719 457 676 525 l 408 674 b 283 792 310 728 283 753 b 372 863 283 835 319 863 b 481 756 438 863 471 829 l 657 756 b 379 1004 650 922 554 1004 b 89 765 211 1004 89 904 b 174 594 89 693 107 661 b 46 390 75 519 46 474 b 156 207 46 314 85 249 l 393 68 b 490 -40 489 15 490 6 b 385 -125 490 -90 447 -125 b 272 -14 322 -125 278 -104 l 272 0 l 90 0 b 383 -279 92 -185 190 -279 b 686 -14 564 -279 686 -172 b 589 172 686 65 654 126 b 719 364 682 215 719 271 z m 553 322 b 489 232 553 290 536 265 l 285 343 b 211 440 229 374 211 397 b 269 531 211 481 228 506 l 468 425 b 553 322 533 390 553 367 z "},"¨":{"ha":463,"x_min":null,"x_max":null,"o":"m 183 858 l 183 1018 l 8 1018 l 8 858 z m 454 858 l 454 1018 l 279 1018 l 279 858 z "},"©":{"ha":1024,"x_min":null,"x_max":null,"o":"m 997 472 b 513 957 997 739 779 957 b 29 472 246 957 29 739 b 513 -11 29 206 246 -11 b 997 472 779 -11 997 206 z m 915 472 b 513 71 915 250 735 71 b 111 472 290 71 111 250 b 513 875 111 694 290 875 b 915 472 735 875 915 694 z m 775 400 l 639 400 b 522 304 636 333 592 304 b 390 469 439 304 390 364 b 526 638 390 576 440 638 b 640 544 588 638 625 611 l 772 544 b 522 750 767 676 661 750 b 250 471 356 750 250 646 b 519 193 250 297 354 193 b 775 400 672 193 772 268 z "},"ª":{"ha":514,"x_min":null,"x_max":null,"o":"m 446 364 l 446 472 l 51 472 l 51 364 z m 457 556 l 457 569 b 429 625 435 589 429 601 l 429 874 b 244 1013 429 965 367 1013 b 57 857 122 1013 58 960 l 165 857 b 247 918 171 901 192 918 b 315 875 292 918 315 903 b 222 824 315 849 314 840 l 175 815 b 43 672 85 799 43 754 b 179 536 43 590 97 536 b 315 600 229 536 276 558 b 329 556 317 578 318 569 z m 315 736 b 224 631 315 669 282 631 b 160 685 183 631 160 651 b 226 746 160 719 178 736 l 267 754 b 315 768 297 760 301 760 z "},"«":{"ha":772,"x_min":null,"x_max":null,"o":"m 354 100 l 354 258 l 214 382 l 354 506 l 354 668 l 122 461 l 122 303 z m 650 100 l 650 258 l 510 382 l 650 506 l 650 668 l 418 461 l 418 303 z "},"¬":{"ha":811,"x_min":null,"x_max":null,"o":"m 728 221 l 728 543 l 83 543 l 83 404 l 589 404 l 589 221 z "},"­":{"ha":463,"x_min":null,"x_max":null,"o":"m 414 288 l 414 475 l 36 475 l 36 288 z "},"®":{"ha":1024,"x_min":null,"x_max":null,"o":"m 997 472 b 513 957 997 739 779 957 b 29 472 246 957 29 739 b 513 -11 29 206 246 -11 b 997 472 779 -11 997 206 z m 915 472 b 513 71 915 250 735 71 b 111 472 290 71 111 250 b 513 875 111 694 290 875 b 915 472 735 875 915 694 z m 757 201 l 757 239 b 732 271 740 246 733 254 b 671 463 729 417 725 439 b 749 590 724 489 749 531 b 585 742 749 676 693 742 l 268 742 l 268 201 l 407 201 l 407 407 l 531 407 b 593 356 574 407 593 393 b 590 301 593 346 590 313 b 614 201 590 246 596 231 z m 610 576 b 538 518 610 536 594 518 l 407 518 l 407 631 l 538 631 b 610 576 593 631 610 614 z "},"¯":{"ha":463,"x_min":null,"x_max":null,"o":"m 438 883 l 438 993 l 22 993 l 22 883 z "},"°":{"ha":556,"x_min":null,"x_max":null,"o":"m 476 790 b 278 989 476 900 388 989 b 79 790 168 989 79 900 b 278 592 79 681 168 592 b 476 790 388 592 476 681 z m 399 790 b 278 669 399 724 344 669 b 157 790 211 669 157 724 b 278 911 157 857 211 911 b 399 790 344 911 399 857 z "},"±":{"ha":811,"x_min":null,"x_max":null,"o":"m 728 417 l 728 556 l 475 556 l 475 808 l 336 808 l 336 556 l 83 556 l 83 417 l 336 417 l 336 264 l 475 264 l 475 417 z m 728 0 l 728 139 l 83 139 l 83 0 z "},"²":{"ha":463,"x_min":null,"x_max":null,"o":"m 421 833 b 236 997 421 939 354 997 b 44 822 114 997 44 935 b 46 800 44 818 44 810 l 158 800 l 157 819 b 229 907 157 875 183 907 b 304 828 276 907 304 878 b 167 674 304 775 288 753 b 39 467 71 611 42 567 l 418 467 l 418 565 l 189 565 b 296 654 225 608 214 597 b 421 833 392 724 421 758 z "},"³":{"ha":463,"x_min":null,"x_max":null,"o":"m 426 619 b 344 746 426 676 399 719 b 408 854 386 771 408 807 b 232 997 408 940 339 997 b 50 817 121 997 56 947 l 158 817 b 228 908 158 882 178 908 b 293 842 267 908 293 882 b 201 771 293 796 261 771 l 188 771 l 188 694 l 207 694 b 310 618 274 694 310 667 b 233 544 310 575 278 544 b 154 625 182 544 158 571 l 42 625 b 232 450 43 514 111 450 b 426 619 349 450 426 517 z "},"´":{"ha":463,"x_min":null,"x_max":null,"o":"m 476 1044 l 260 1044 l 163 831 l 301 831 z "},"µ":{"ha":849,"x_min":null,"x_max":null,"o":"m 796 -8 l 796 113 b 768 107 782 108 776 107 b 726 208 735 107 726 128 l 726 750 l 532 750 l 532 281 b 392 133 532 194 474 133 b 275 286 318 133 275 182 l 275 750 l 81 750 l 81 -306 l 267 -306 l 267 21 b 406 -32 306 -17 349 -32 b 567 43 469 -32 513 -12 b 699 -32 600 -12 633 -32 b 796 -8 738 -32 764 -25 z "},"¶":{"ha":772,"x_min":null,"x_max":null,"o":"m 735 913 l 735 1013 l 314 1013 b 26 688 147 1013 26 861 b 315 371 26 510 144 379 l 315 -265 l 451 -265 l 451 913 l 539 913 l 539 -265 l 675 -265 l 675 913 z "},"·":{"ha":386,"x_min":null,"x_max":null,"o":"m 297 347 b 193 451 297 404 250 451 b 89 347 136 451 89 404 b 193 243 89 290 136 243 b 297 347 250 243 297 290 z "},"¸":{"ha":463,"x_min":null,"x_max":null,"o":"m 408 -176 b 303 -69 408 -115 368 -69 l 247 -69 l 285 7 l 197 7 l 129 -136 l 218 -136 b 289 -179 261 -136 289 -150 b 210 -236 289 -211 254 -236 b 64 -194 171 -236 138 -226 l 38 -279 b 229 -318 128 -310 168 -318 b 408 -176 344 -318 408 -260 z "},"¹":{"ha":463,"x_min":null,"x_max":null,"o":"m 321 465 l 321 985 l 243 985 b 74 893 225 924 169 893 l 74 818 l 204 818 l 204 465 z "},"º":{"ha":507,"x_min":null,"x_max":null,"o":"m 464 364 l 464 472 l 46 472 l 46 364 z m 476 771 b 254 1013 476 924 394 1013 b 32 774 117 1013 32 922 b 254 536 32 626 117 536 b 476 771 390 536 476 626 z m 360 772 b 254 631 360 689 317 631 b 149 775 192 631 149 689 b 254 918 149 860 192 918 b 360 772 318 918 360 860 z "},"»":{"ha":772,"x_min":null,"x_max":null,"o":"m 354 306 l 354 465 l 122 668 l 122 510 l 263 386 l 122 263 l 122 100 z m 642 306 l 642 465 l 410 668 l 410 510 l 550 386 l 410 263 l 410 100 z "},"¼":{"ha":1158,"x_min":null,"x_max":null,"o":"m 336 465 l 336 985 l 258 985 b 89 893 240 924 185 893 l 89 818 l 219 818 l 219 465 z m 931 993 l 810 993 l 222 -35 l 343 -35 z m 1053 114 l 1053 206 l 997 206 l 997 519 l 864 519 l 661 204 l 661 114 l 881 114 l 881 0 l 997 0 l 997 114 z m 881 206 l 751 206 l 881 406 z "},"½":{"ha":1158,"x_min":null,"x_max":null,"o":"m 336 465 l 336 985 l 258 985 b 89 893 240 924 185 893 l 89 818 l 219 818 l 219 465 z m 894 993 l 774 993 l 186 -35 l 307 -35 z m 1075 367 b 892 531 1075 472 1010 531 b 700 356 769 531 700 468 b 701 333 700 351 700 343 l 814 333 l 811 353 b 885 440 811 408 839 440 b 960 361 932 440 960 411 b 821 207 960 308 943 286 b 694 0 726 144 697 100 l 1074 0 l 1074 99 l 844 99 b 951 189 881 142 872 133 b 1075 367 1049 256 1075 293 z "},"¾":{"ha":1158,"x_min":null,"x_max":null,"o":"m 472 619 b 390 746 472 676 444 719 b 454 854 432 771 454 807 b 278 997 454 940 385 997 b 96 817 167 997 101 947 l 204 817 b 274 908 204 882 224 908 b 339 842 313 908 339 882 b 247 771 339 796 307 771 l 233 771 l 233 694 l 253 694 b 356 618 319 694 356 667 b 279 544 356 575 324 544 b 200 625 228 544 204 571 l 88 625 b 278 450 89 514 157 450 b 472 619 394 450 472 517 z m 975 993 l 854 993 l 267 -35 l 388 -35 z m 1053 114 l 1053 206 l 997 206 l 997 519 l 864 519 l 661 204 l 661 114 l 881 114 l 881 0 l 997 0 l 997 114 z m 881 206 l 751 206 l 881 406 z "},"¿":{"ha":849,"x_min":null,"x_max":null,"o":"m 767 82 l 578 82 l 578 79 l 578 67 b 425 -119 578 -40 514 -119 b 279 40 342 -119 279 -50 b 378 196 279 104 296 128 b 515 451 482 283 515 347 l 515 471 l 343 471 b 250 306 343 379 333 364 b 83 36 121 214 83 153 b 429 -283 83 -153 225 -283 b 767 82 631 -283 767 -171 z m 529 547 l 529 750 l 321 750 l 321 547 z "},"À":{"ha":1003,"x_min":null,"x_max":null,"o":"m 976 0 l 626 1013 l 396 1013 l 36 0 l 249 0 l 317 204 l 696 204 l 763 0 z m 639 378 l 375 378 l 507 774 z m 585 1092 l 479 1279 l 250 1279 l 438 1092 z "},"Á":{"ha":1003,"x_min":null,"x_max":null,"o":"m 976 0 l 626 1013 l 396 1013 l 36 0 l 249 0 l 317 204 l 696 204 l 763 0 z m 639 378 l 375 378 l 507 774 z m 772 1279 l 543 1279 l 438 1092 l 585 1092 z "},"Â":{"ha":1003,"x_min":null,"x_max":null,"o":"m 976 0 l 626 1013 l 396 1013 l 36 0 l 249 0 l 317 204 l 696 204 l 763 0 z m 639 378 l 375 378 l 507 774 z m 776 1093 l 604 1281 l 426 1281 l 246 1093 l 372 1093 l 510 1190 l 646 1093 z "},"Ã":{"ha":1003,"x_min":null,"x_max":null,"o":"m 976 0 l 626 1013 l 396 1013 l 36 0 l 249 0 l 317 204 l 696 204 l 763 0 z m 639 378 l 375 378 l 507 774 z m 760 1275 l 672 1275 b 622 1208 668 1231 651 1208 b 575 1217 613 1208 585 1213 l 476 1251 b 399 1269 426 1269 425 1269 b 268 1097 322 1269 274 1206 l 356 1097 b 411 1160 363 1142 378 1160 b 453 1151 424 1160 436 1157 l 551 1115 b 628 1099 581 1104 607 1099 b 760 1275 710 1099 754 1157 z "},"Ä":{"ha":1003,"x_min":null,"x_max":null,"o":"m 976 0 l 626 1013 l 396 1013 l 36 0 l 249 0 l 317 204 l 696 204 l 763 0 z m 639 378 l 375 378 l 507 774 z m 464 1107 l 464 1267 l 289 1267 l 289 1107 z m 735 1107 l 735 1267 l 560 1267 l 560 1107 z "},"Å":{"ha":1003,"x_min":null,"x_max":null,"o":"m 976 0 l 626 1013 l 396 1013 l 36 0 l 249 0 l 317 204 l 696 204 l 763 0 z m 639 378 l 375 378 l 507 774 z m 650 1197 b 514 1336 650 1275 590 1336 b 374 1199 435 1336 374 1275 b 513 1061 374 1122 435 1061 b 650 1197 586 1061 650 1122 z m 576 1199 b 514 1135 576 1164 547 1135 b 447 1199 476 1135 447 1164 b 514 1263 447 1233 476 1263 b 576 1199 549 1263 576 1233 z "},"Æ":{"ha":1389,"x_min":null,"x_max":null,"o":"m 1342 0 l 1342 174 l 806 174 l 806 436 l 1276 436 l 1276 610 l 806 610 l 806 839 l 1314 839 l 1314 1013 l 367 1013 l 1 0 l 214 0 l 288 211 l 597 211 l 597 0 z m 597 385 l 346 385 l 504 839 l 597 839 z "},"Ç":{"ha":1003,"x_min":null,"x_max":null,"o":"m 951 346 l 749 346 b 525 158 736 217 654 158 b 269 503 364 158 269 282 b 532 851 269 726 368 851 b 749 669 644 851 718 800 l 947 669 b 525 1029 929 903 753 1029 b 61 506 239 1029 61 833 b 465 -14 61 201 215 10 l 407 -136 l 496 -136 b 567 -179 539 -136 567 -150 b 488 -236 567 -211 532 -236 b 342 -194 449 -236 415 -226 l 315 -279 b 507 -318 406 -310 446 -318 b 686 -176 622 -318 686 -260 b 581 -69 686 -115 646 -69 l 525 -69 l 551 -15 b 951 346 785 -6 939 124 z "},"È":{"ha":926,"x_min":null,"x_max":null,"o":"m 867 0 l 867 174 l 318 174 l 318 436 l 803 436 l 803 610 l 318 610 l 318 839 l 842 839 l 842 1013 l 110 1013 l 110 0 z m 550 1092 l 444 1279 l 215 1279 l 403 1092 z "},"É":{"ha":926,"x_min":null,"x_max":null,"o":"m 867 0 l 867 174 l 318 174 l 318 436 l 803 436 l 803 610 l 318 610 l 318 839 l 842 839 l 842 1013 l 110 1013 l 110 0 z m 738 1279 l 508 1279 l 403 1092 l 550 1092 z "},"Ê":{"ha":926,"x_min":null,"x_max":null,"o":"m 867 0 l 867 174 l 318 174 l 318 436 l 803 436 l 803 610 l 318 610 l 318 839 l 842 839 l 842 1013 l 110 1013 l 110 0 z m 742 1093 l 569 1281 l 392 1281 l 211 1093 l 338 1093 l 475 1190 l 611 1093 z "},"Ë":{"ha":926,"x_min":null,"x_max":null,"o":"m 867 0 l 867 174 l 318 174 l 318 436 l 803 436 l 803 610 l 318 610 l 318 839 l 842 839 l 842 1013 l 110 1013 l 110 0 z m 429 1107 l 429 1267 l 254 1267 l 254 1107 z m 700 1107 l 700 1267 l 525 1267 l 525 1107 z "},"Ì":{"ha":386,"x_min":null,"x_max":null,"o":"m 296 0 l 296 1013 l 88 1013 l 88 0 z m 296 1092 l 190 1279 l -39 1279 l 149 1092 z "},"Í":{"ha":386,"x_min":null,"x_max":null,"o":"m 296 0 l 296 1013 l 88 1013 l 88 0 z m 424 1279 l 194 1279 l 89 1092 l 236 1092 z "},"Î":{"ha":386,"x_min":null,"x_max":null,"o":"m 296 0 l 296 1013 l 88 1013 l 88 0 z m 457 1093 l 285 1281 l 107 1281 l -74 1093 l 53 1093 l 190 1190 l 326 1093 z "},"Ï":{"ha":386,"x_min":null,"x_max":null,"o":"m 296 0 l 296 1013 l 88 1013 l 88 0 z m 144 1107 l 144 1267 l -31 1267 l -31 1107 z m 415 1107 l 415 1267 l 240 1267 l 240 1107 z "},"Ð":{"ha":1003,"x_min":null,"x_max":null,"o":"m 946 507 b 824 896 946 654 900 801 b 503 1013 757 978 661 1013 l 107 1013 l 107 582 l 0 582 l 0 471 l 107 471 l 107 0 l 503 0 b 824 118 661 0 757 35 b 946 507 900 214 946 357 z m 746 506 b 503 174 746 313 693 174 l 315 174 l 315 471 l 524 471 l 524 582 l 315 582 l 315 839 l 503 839 b 746 506 693 839 746 701 z "},"Ñ":{"ha":1003,"x_min":null,"x_max":null,"o":"m 918 0 l 918 1013 l 710 1013 l 710 324 l 308 1013 l 94 1013 l 94 0 l 303 0 l 303 700 l 710 0 z m 750 1275 l 663 1275 b 613 1208 658 1231 642 1208 b 565 1217 603 1208 575 1213 l 467 1251 b 389 1269 417 1269 415 1269 b 258 1097 313 1269 264 1206 l 346 1097 b 401 1160 353 1142 368 1160 b 443 1151 414 1160 426 1157 l 542 1115 b 618 1099 571 1104 597 1099 b 750 1275 700 1099 744 1157 z "},"Ò":{"ha":1081,"x_min":null,"x_max":null,"o":"m 1031 500 b 542 1029 1031 806 838 1029 b 56 507 244 1029 56 797 b 543 -17 56 204 246 -17 b 1031 500 838 -17 1031 204 z m 822 501 b 543 161 822 294 710 161 b 264 507 375 161 264 294 b 543 851 264 711 375 851 b 822 501 714 851 822 713 z m 615 1092 l 510 1279 l 281 1279 l 468 1092 z "},"Ó":{"ha":1081,"x_min":null,"x_max":null,"o":"m 1031 500 b 542 1029 1031 806 838 1029 b 56 507 244 1029 56 797 b 543 -17 56 204 246 -17 b 1031 500 838 -17 1031 204 z m 822 501 b 543 161 822 294 710 161 b 264 507 375 161 264 294 b 543 851 264 711 375 851 b 822 501 714 851 822 713 z m 803 1279 l 574 1279 l 468 1092 l 615 1092 z "},"Ô":{"ha":1081,"x_min":null,"x_max":null,"o":"m 1031 500 b 542 1029 1031 806 838 1029 b 56 507 244 1029 56 797 b 543 -17 56 204 246 -17 b 1031 500 838 -17 1031 204 z m 822 501 b 543 161 822 294 710 161 b 264 507 375 161 264 294 b 543 851 264 711 375 851 b 822 501 714 851 822 713 z m 807 1093 l 635 1281 l 457 1281 l 276 1093 l 403 1093 l 540 1190 l 676 1093 z "},"Õ":{"ha":1081,"x_min":null,"x_max":null,"o":"m 1031 500 b 542 1029 1031 806 838 1029 b 56 507 244 1029 56 797 b 543 -17 56 204 246 -17 b 1031 500 838 -17 1031 204 z m 822 501 b 543 161 822 294 710 161 b 264 507 375 161 264 294 b 543 851 264 711 375 851 b 822 501 714 851 822 713 z m 790 1275 l 703 1275 b 653 1208 699 1231 682 1208 b 606 1217 643 1208 615 1213 l 507 1251 b 429 1269 457 1269 456 1269 b 299 1097 353 1269 304 1206 l 386 1097 b 442 1160 393 1142 408 1160 b 483 1151 454 1160 467 1157 l 582 1115 b 658 1099 611 1104 638 1099 b 790 1275 740 1099 785 1157 z "},"Ö":{"ha":1081,"x_min":null,"x_max":null,"o":"m 1031 500 b 542 1029 1031 806 838 1029 b 56 507 244 1029 56 797 b 543 -17 56 204 246 -17 b 1031 500 838 -17 1031 204 z m 822 501 b 543 161 822 294 710 161 b 264 507 375 161 264 294 b 543 851 264 711 375 851 b 822 501 714 851 822 713 z m 494 1107 l 494 1267 l 319 1267 l 319 1107 z m 765 1107 l 765 1267 l 590 1267 l 590 1107 z "},"×":{"ha":811,"x_min":null,"x_max":null,"o":"m 682 168 l 504 347 l 682 526 l 585 624 l 406 446 l 226 624 l 129 526 l 307 347 l 129 168 l 226 71 l 406 249 l 585 71 z "},"Ø":{"ha":1081,"x_min":null,"x_max":null,"o":"m 1031 500 b 933 833 1031 629 996 744 l 1029 936 l 935 1025 l 844 928 b 542 1029 765 992 661 1029 b 56 507 244 1029 56 797 b 151 178 56 379 89 267 l 57 76 l 151 -12 l 240 83 b 543 -17 319 19 422 -17 b 1031 500 838 -17 1031 204 z m 822 501 b 543 161 822 294 710 161 b 369 224 475 161 415 183 l 790 679 b 822 501 811 628 822 568 z m 715 789 l 294 333 b 264 507 275 382 264 440 b 543 851 264 711 375 851 b 715 789 611 851 671 829 z "},"Ù":{"ha":1003,"x_min":null,"x_max":null,"o":"m 908 342 l 908 1013 l 700 1013 l 700 342 b 507 161 700 219 638 161 b 314 342 376 161 314 219 l 314 1013 l 106 1013 l 106 342 b 507 -17 106 103 275 -17 b 908 342 739 -17 908 103 z m 575 1092 l 469 1279 l 240 1279 l 428 1092 z "},"Ú":{"ha":1003,"x_min":null,"x_max":null,"o":"m 908 342 l 908 1013 l 700 1013 l 700 342 b 507 161 700 219 638 161 b 314 342 376 161 314 219 l 314 1013 l 106 1013 l 106 342 b 507 -17 106 103 275 -17 b 908 342 739 -17 908 103 z m 763 1279 l 533 1279 l 428 1092 l 575 1092 z "},"Û":{"ha":1003,"x_min":null,"x_max":null,"o":"m 908 342 l 908 1013 l 700 1013 l 700 342 b 507 161 700 219 638 161 b 314 342 376 161 314 219 l 314 1013 l 106 1013 l 106 342 b 507 -17 106 103 275 -17 b 908 342 739 -17 908 103 z m 767 1093 l 594 1281 l 417 1281 l 236 1093 l 363 1093 l 500 1190 l 636 1093 z "},"Ü":{"ha":1003,"x_min":null,"x_max":null,"o":"m 908 342 l 908 1013 l 700 1013 l 700 342 b 507 161 700 219 638 161 b 314 342 376 161 314 219 l 314 1013 l 106 1013 l 106 342 b 507 -17 106 103 275 -17 b 908 342 739 -17 908 103 z m 454 1107 l 454 1267 l 279 1267 l 279 1107 z m 725 1107 l 725 1267 l 550 1267 l 550 1107 z "},"Ý":{"ha":926,"x_min":null,"x_max":null,"o":"m 903 1013 l 669 1013 l 476 565 l 269 1013 l 38 1013 l 374 375 l 374 0 l 582 0 l 582 375 z m 739 1279 l 510 1279 l 404 1092 l 551 1092 z "},"Þ":{"ha":926,"x_min":null,"x_max":null,"o":"m 879 531 b 793 768 879 633 851 711 b 553 846 738 822 667 846 l 314 846 l 314 1013 l 106 1013 l 106 0 l 314 0 l 314 194 l 574 194 b 879 531 761 194 879 324 z m 671 519 b 508 368 671 417 619 368 l 314 368 l 314 672 l 508 672 b 671 519 619 672 671 624 z "},"ß":{"ha":849,"x_min":null,"x_max":null,"o":"m 799 328 b 618 571 799 457 733 547 b 739 760 697 601 739 667 b 421 1013 739 908 608 1013 b 93 719 218 1013 93 931 l 93 0 l 288 0 l 288 746 b 408 856 288 815 332 856 b 544 740 493 856 544 813 b 408 617 544 665 492 618 l 396 617 l 396 485 l 414 485 b 604 314 532 485 604 419 b 442 143 604 213 538 147 l 414 142 b 396 140 414 142 404 142 l 396 -15 b 496 -24 442 -21 465 -24 b 799 328 678 -24 799 117 z "},"à":{"ha":772,"x_min":null,"x_max":null,"o":"m 728 0 l 728 24 b 683 115 693 56 683 76 l 683 532 b 376 763 683 685 579 763 b 56 503 174 763 68 676 l 243 503 b 381 606 253 581 285 606 b 493 531 456 606 493 581 b 338 443 493 451 435 460 l 260 429 b 39 203 111 403 39 339 b 267 -12 39 57 142 -12 b 494 94 350 -12 426 24 b 517 0 494 56 499 22 z m 493 321 b 339 144 493 208 438 144 b 233 225 274 144 233 169 b 344 318 233 282 264 303 l 411 331 b 493 354 463 340 471 343 z m 446 831 l 349 1044 l 132 1044 l 307 831 z "},"á":{"ha":772,"x_min":null,"x_max":null,"o":"m 728 0 l 728 24 b 683 115 693 56 683 76 l 683 532 b 376 763 683 685 579 763 b 56 503 174 763 68 676 l 243 503 b 381 606 253 581 285 606 b 493 531 456 606 493 581 b 338 443 493 451 435 460 l 260 429 b 39 203 111 403 39 339 b 267 -12 39 57 142 -12 b 494 94 350 -12 426 24 b 517 0 494 56 499 22 z m 493 321 b 339 144 493 208 438 144 b 233 225 274 144 233 169 b 344 318 233 282 264 303 l 411 331 b 493 354 463 340 471 343 z m 621 1044 l 404 1044 l 307 831 l 446 831 z "},"â":{"ha":772,"x_min":null,"x_max":null,"o":"m 728 0 l 728 24 b 683 115 693 56 683 76 l 683 532 b 376 763 683 685 579 763 b 56 503 174 763 68 676 l 243 503 b 381 606 253 581 285 606 b 493 531 456 606 493 581 b 338 443 493 451 435 460 l 260 429 b 39 203 111 403 39 339 b 267 -12 39 57 142 -12 b 494 94 350 -12 426 24 b 517 0 494 56 499 22 z m 493 321 b 339 144 493 208 438 144 b 233 225 274 144 233 169 b 344 318 233 282 264 303 l 411 331 b 493 354 463 340 471 343 z m 611 831 l 468 1044 l 292 1044 l 142 831 l 261 831 l 375 938 l 489 831 z "},"ã":{"ha":772,"x_min":null,"x_max":null,"o":"m 728 0 l 728 24 b 683 115 693 56 683 76 l 683 532 b 376 763 683 685 579 763 b 56 503 174 763 68 676 l 243 503 b 381 606 253 581 285 606 b 493 531 456 606 493 581 b 338 443 493 451 435 460 l 260 429 b 39 203 111 403 39 339 b 267 -12 39 57 142 -12 b 494 94 350 -12 426 24 b 517 0 494 56 499 22 z m 493 321 b 339 144 493 208 438 144 b 233 225 274 144 233 169 b 344 318 233 282 264 303 l 411 331 b 493 354 463 340 471 343 z m 624 1026 l 536 1026 b 486 960 532 982 515 960 b 439 968 476 960 449 964 l 340 1003 b 263 1021 290 1021 289 1021 b 132 849 186 1021 138 957 l 219 849 b 275 911 226 893 242 911 b 317 903 288 911 300 908 l 415 867 b 492 850 444 856 471 850 b 624 1026 574 850 618 908 z "},"ä":{"ha":772,"x_min":null,"x_max":null,"o":"m 728 0 l 728 24 b 683 115 693 56 683 76 l 683 532 b 376 763 683 685 579 763 b 56 503 174 763 68 676 l 243 503 b 381 606 253 581 285 606 b 493 531 456 606 493 581 b 338 443 493 451 435 460 l 260 429 b 39 203 111 403 39 339 b 267 -12 39 57 142 -12 b 494 94 350 -12 426 24 b 517 0 494 56 499 22 z m 493 321 b 339 144 493 208 438 144 b 233 225 274 144 233 169 b 344 318 233 282 264 303 l 411 331 b 493 354 463 340 471 343 z m 328 858 l 328 1018 l 153 1018 l 153 858 z m 599 858 l 599 1018 l 424 1018 l 424 858 z "},"å":{"ha":772,"x_min":null,"x_max":null,"o":"m 728 0 l 728 24 b 683 115 693 56 683 76 l 683 532 b 376 763 683 685 579 763 b 56 503 174 763 68 676 l 243 503 b 381 606 253 581 285 606 b 493 531 456 606 493 581 b 338 443 493 451 435 460 l 260 429 b 39 203 111 403 39 339 b 267 -12 39 57 142 -12 b 494 94 350 -12 426 24 b 517 0 494 56 499 22 z m 493 321 b 339 144 493 208 438 144 b 233 225 274 144 233 169 b 344 318 233 282 264 303 l 411 331 b 493 354 463 340 471 343 z m 514 936 b 378 1075 514 1014 454 1075 b 238 938 299 1075 238 1014 b 376 800 238 861 299 800 b 514 936 450 800 514 861 z m 440 938 b 378 874 440 903 411 874 b 311 938 340 874 311 903 b 378 1001 311 972 340 1001 b 440 938 413 1001 440 972 z "},"æ":{"ha":1235,"x_min":null,"x_max":null,"o":"m 1190 347 b 835 763 1190 610 1058 763 b 619 693 750 763 676 739 b 376 763 567 739 485 763 b 60 503 169 763 63 675 l 242 503 b 374 606 251 578 286 606 b 492 532 453 606 492 582 b 458 476 492 510 479 488 b 336 447 432 461 432 464 l 258 433 b 38 207 108 407 38 344 b 271 -12 38 67 128 -12 b 556 133 383 -12 469 32 b 833 -11 614 39 711 -11 b 1181 211 1001 -11 1138 83 l 989 211 b 844 138 972 178 911 138 b 686 314 751 138 686 194 l 1189 314 b 1190 347 1190 331 1190 340 z m 492 321 b 338 144 492 207 438 144 b 232 226 272 144 232 169 b 343 317 232 283 269 306 l 410 326 b 492 353 451 332 468 339 z m 988 443 l 688 443 b 836 614 696 556 747 614 b 988 443 926 614 978 556 z "},"ç":{"ha":772,"x_min":null,"x_max":null,"o":"m 725 260 l 539 260 b 400 144 514 182 475 144 b 242 369 301 144 242 224 b 400 606 242 507 278 606 b 539 469 479 606 517 568 l 725 469 b 401 763 711 653 589 763 b 47 369 178 763 47 625 b 342 -10 47 144 154 13 l 282 -136 l 371 -136 b 442 -179 414 -136 442 -150 b 363 -236 442 -211 407 -236 b 217 -194 324 -236 290 -226 l 190 -279 b 382 -318 281 -310 321 -318 b 561 -176 497 -318 561 -260 b 456 -69 561 -115 521 -69 l 400 -69 l 428 -11 b 725 260 594 0 708 108 z "},"è":{"ha":772,"x_min":null,"x_max":null,"o":"m 729 347 b 378 763 729 606 599 763 b 31 365 163 763 31 617 b 374 -12 31 125 161 -12 b 721 211 542 -12 678 64 l 529 211 b 381 136 513 157 451 136 b 225 324 289 136 231 178 l 728 324 z m 526 453 l 228 453 b 375 614 240 557 289 614 b 526 453 458 614 517 560 z m 447 831 l 350 1044 l 133 1044 l 308 831 z "},"é":{"ha":772,"x_min":null,"x_max":null,"o":"m 729 347 b 378 763 729 606 599 763 b 31 365 163 763 31 617 b 374 -12 31 125 161 -12 b 721 211 542 -12 678 64 l 529 211 b 381 136 513 157 451 136 b 225 324 289 136 231 178 l 728 324 z m 526 453 l 228 453 b 375 614 240 557 289 614 b 526 453 458 614 517 560 z m 622 1044 l 406 1044 l 308 831 l 447 831 z "},"ê":{"ha":772,"x_min":null,"x_max":null,"o":"m 729 347 b 378 763 729 606 599 763 b 31 365 163 763 31 617 b 374 -12 31 125 161 -12 b 721 211 542 -12 678 64 l 529 211 b 381 136 513 157 451 136 b 225 324 289 136 231 178 l 728 324 z m 526 453 l 228 453 b 375 614 240 557 289 614 b 526 453 458 614 517 560 z m 613 831 l 469 1044 l 293 1044 l 143 831 l 263 831 l 376 938 l 490 831 z "},"ë":{"ha":772,"x_min":null,"x_max":null,"o":"m 729 347 b 378 763 729 606 599 763 b 31 365 163 763 31 617 b 374 -12 31 125 161 -12 b 721 211 542 -12 678 64 l 529 211 b 381 136 513 157 451 136 b 225 324 289 136 231 178 l 728 324 z m 526 453 l 228 453 b 375 614 240 557 289 614 b 526 453 458 614 517 560 z m 329 858 l 329 1018 l 154 1018 l 154 858 z m 600 858 l 600 1018 l 425 1018 l 425 858 z "},"ì":{"ha":386,"x_min":null,"x_max":null,"o":"m 288 0 l 288 750 l 93 750 l 93 0 z m 288 831 l 190 1044 l -26 1044 l 149 831 z "},"í":{"ha":386,"x_min":null,"x_max":null,"o":"m 288 0 l 288 750 l 93 750 l 93 0 z m 408 1044 l 192 1044 l 94 831 l 233 831 z "},"î":{"ha":386,"x_min":null,"x_max":null,"o":"m 288 0 l 288 750 l 93 750 l 93 0 z m 428 831 l 285 1044 l 108 1044 l -42 831 l 78 831 l 192 938 l 306 831 z "},"ï":{"ha":386,"x_min":null,"x_max":null,"o":"m 288 0 l 288 750 l 93 750 l 93 0 z m 144 858 l 144 1018 l -31 1018 l -31 858 z m 415 858 l 415 1018 l 240 1018 l 240 858 z "},"ð":{"ha":849,"x_min":null,"x_max":null,"o":"m 790 383 b 483 917 790 614 693 775 l 600 986 l 529 1033 l 408 961 b 388 971 397 965 388 971 b 267 1029 322 1007 318 1010 l 174 964 b 299 897 242 931 261 919 l 201 836 l 260 785 l 367 849 b 499 715 419 818 461 775 b 381 742 444 736 417 742 b 49 378 183 742 49 599 b 419 -12 49 128 188 -12 b 790 383 653 -12 790 128 z m 594 365 b 419 144 594 226 525 144 b 244 371 314 144 244 228 b 419 596 244 513 314 596 b 594 367 526 596 594 513 z "},"ñ":{"ha":849,"x_min":null,"x_max":null,"o":"m 758 0 l 758 503 b 507 763 758 668 667 763 b 282 642 406 763 338 725 l 282 750 l 88 750 l 88 0 l 282 0 l 282 450 b 439 597 282 539 344 597 b 564 463 522 597 564 551 l 564 0 z m 672 1026 l 585 1026 b 535 960 581 982 564 960 b 488 968 525 960 497 964 l 389 1003 b 311 1021 339 1021 338 1021 b 181 849 235 1021 186 957 l 268 849 b 324 911 275 893 290 911 b 365 903 336 911 349 908 l 464 867 b 540 850 493 856 519 850 b 672 1026 622 850 667 908 z "},"ò":{"ha":849,"x_min":null,"x_max":null,"o":"m 790 369 b 418 763 790 624 653 763 b 49 375 189 763 49 621 b 419 -12 49 128 189 -12 b 790 369 647 -12 790 129 z m 596 372 b 419 144 596 232 524 144 b 243 375 314 144 243 232 b 419 606 243 518 314 606 b 596 372 526 606 596 519 z m 493 831 l 396 1044 l 179 1044 l 354 831 z "},"ó":{"ha":849,"x_min":null,"x_max":null,"o":"m 790 369 b 418 763 790 624 653 763 b 49 375 189 763 49 621 b 419 -12 49 128 189 -12 b 790 369 647 -12 790 129 z m 596 372 b 419 144 596 232 524 144 b 243 375 314 144 243 232 b 419 606 243 518 314 606 b 596 372 526 606 596 519 z m 669 1044 l 453 1044 l 356 831 l 494 831 z "},"ô":{"ha":849,"x_min":null,"x_max":null,"o":"m 790 369 b 418 763 790 624 653 763 b 49 375 189 763 49 621 b 419 -12 49 128 189 -12 b 790 369 647 -12 790 129 z m 596 372 b 419 144 596 232 524 144 b 243 375 314 144 243 232 b 419 606 243 518 314 606 b 596 372 526 606 596 519 z m 660 831 l 517 1044 l 340 1044 l 190 831 l 310 831 l 424 938 l 538 831 z "},"õ":{"ha":849,"x_min":null,"x_max":null,"o":"m 790 369 b 418 763 790 624 653 763 b 49 375 189 763 49 621 b 419 -12 49 128 189 -12 b 790 369 647 -12 790 129 z m 596 372 b 419 144 596 232 524 144 b 243 375 314 144 243 232 b 419 606 243 518 314 606 b 596 372 526 606 596 519 z m 672 1026 l 585 1026 b 535 960 581 982 564 960 b 488 968 525 960 497 964 l 389 1003 b 311 1021 339 1021 338 1021 b 181 849 235 1021 186 957 l 268 849 b 324 911 275 893 290 911 b 365 903 336 911 349 908 l 464 867 b 540 850 493 856 519 850 b 672 1026 622 850 667 908 z "},"ö":{"ha":849,"x_min":null,"x_max":null,"o":"m 790 369 b 418 763 790 624 653 763 b 49 375 189 763 49 621 b 419 -12 49 128 189 -12 b 790 369 647 -12 790 129 z m 596 372 b 419 144 596 232 524 144 b 243 375 314 144 243 232 b 419 606 243 518 314 606 b 596 372 526 606 596 519 z m 376 858 l 376 1018 l 201 1018 l 201 858 z m 647 858 l 647 1018 l 472 1018 l 472 858 z "},"÷":{"ha":811,"x_min":null,"x_max":null,"o":"m 728 278 l 728 417 l 83 417 l 83 278 z m 510 600 b 406 704 510 658 463 704 b 301 600 349 704 301 658 b 406 496 301 543 349 496 b 510 600 463 496 510 543 z m 510 94 b 406 199 510 151 463 199 b 301 94 349 199 301 151 b 406 -10 301 36 349 -10 b 510 94 463 -10 510 36 z "},"ø":{"ha":849,"x_min":null,"x_max":null,"o":"m 790 369 b 728 615 790 469 769 553 l 783 674 l 700 754 l 647 700 b 418 763 588 742 510 763 b 49 375 189 763 49 621 b 111 135 49 278 71 197 l 56 76 l 139 -4 l 192 51 b 419 -12 251 10 329 -12 b 790 369 647 -12 790 129 z m 596 372 b 419 144 596 232 524 144 b 315 181 379 144 344 157 l 585 464 b 596 372 592 438 596 407 z m 524 569 l 254 286 b 243 375 247 313 243 342 b 419 606 243 518 314 606 b 524 569 460 606 496 593 z "},"ù":{"ha":849,"x_min":null,"x_max":null,"o":"m 751 0 l 751 750 l 557 750 l 557 300 b 400 153 557 211 494 153 b 275 288 317 153 275 197 l 275 750 l 81 750 l 81 247 b 332 -12 81 82 172 -12 b 557 99 433 -12 501 25 l 557 0 z m 493 831 l 396 1044 l 179 1044 l 354 831 z "},"ú":{"ha":849,"x_min":null,"x_max":null,"o":"m 751 0 l 751 750 l 557 750 l 557 300 b 400 153 557 211 494 153 b 275 288 317 153 275 197 l 275 750 l 81 750 l 81 247 b 332 -12 81 82 172 -12 b 557 99 433 -12 501 25 l 557 0 z m 669 1044 l 453 1044 l 356 831 l 494 831 z "},"û":{"ha":849,"x_min":null,"x_max":null,"o":"m 751 0 l 751 750 l 557 750 l 557 300 b 400 153 557 211 494 153 b 275 288 317 153 275 197 l 275 750 l 81 750 l 81 247 b 332 -12 81 82 172 -12 b 557 99 433 -12 501 25 l 557 0 z m 660 831 l 517 1044 l 340 1044 l 190 831 l 310 831 l 424 938 l 538 831 z "},"ü":{"ha":849,"x_min":null,"x_max":null,"o":"m 751 0 l 751 750 l 557 750 l 557 300 b 400 153 557 211 494 153 b 275 288 317 153 275 197 l 275 750 l 81 750 l 81 247 b 332 -12 81 82 172 -12 b 557 99 433 -12 501 25 l 557 0 z m 376 858 l 376 1018 l 201 1018 l 201 858 z m 647 858 l 647 1018 l 472 1018 l 472 858 z "},"ý":{"ha":772,"x_min":null,"x_max":null,"o":"m 747 750 l 547 750 l 392 204 l 226 750 l 13 750 l 292 -32 l 292 -36 b 171 -161 292 -107 239 -161 b 119 -153 156 -161 144 -160 l 119 -299 b 189 -304 149 -303 165 -304 b 439 -137 319 -304 388 -281 z m 631 1044 l 414 1044 l 317 831 l 456 831 z "},"þ":{"ha":849,"x_min":null,"x_max":null,"o":"m 797 364 b 483 763 797 593 664 763 b 275 639 389 763 322 722 l 275 1013 l 81 1013 l 81 -303 l 275 -303 l 275 108 b 483 -12 322 26 389 -12 b 797 364 664 -12 797 157 z m 603 361 b 439 150 603 244 535 150 b 275 364 342 150 275 244 b 439 600 275 504 342 600 b 603 361 538 600 603 504 z "},"ÿ":{"ha":772,"x_min":null,"x_max":null,"o":"m 747 750 l 547 750 l 392 204 l 226 750 l 13 750 l 292 -32 l 292 -36 b 171 -161 292 -107 239 -161 b 119 -153 156 -161 144 -160 l 119 -299 b 189 -304 149 -303 165 -304 b 439 -137 319 -304 388 -281 z m 338 858 l 338 1018 l 163 1018 l 163 858 z m 608 858 l 608 1018 l 433 1018 l 433 858 z "},"Ā":{"ha":1003,"x_min":null,"x_max":null,"o":"m 976 0 l 626 1013 l 396 1013 l 36 0 l 249 0 l 317 204 l 696 204 l 763 0 z m 639 378 l 375 378 l 507 774 z m 718 1132 l 718 1242 l 303 1242 l 303 1132 z "},"ā":{"ha":772,"x_min":null,"x_max":null,"o":"m 728 0 l 728 24 b 683 115 693 56 683 76 l 683 532 b 376 763 683 685 579 763 b 56 503 174 763 68 676 l 243 503 b 381 606 253 581 285 606 b 493 531 456 606 493 581 b 338 443 493 451 435 460 l 260 429 b 39 203 111 403 39 339 b 267 -12 39 57 142 -12 b 494 94 350 -12 426 24 b 517 0 494 56 499 22 z m 493 321 b 339 144 493 208 438 144 b 233 225 274 144 233 169 b 344 318 233 282 264 303 l 411 331 b 493 354 463 340 471 343 z m 582 883 l 582 993 l 167 993 l 167 883 z "},"Ă":{"ha":1003,"x_min":null,"x_max":null,"o":"m 976 0 l 626 1013 l 396 1013 l 36 0 l 249 0 l 317 204 l 696 204 l 763 0 z m 639 378 l 375 378 l 507 774 z m 761 1271 l 663 1271 b 511 1215 657 1232 601 1215 b 358 1271 417 1215 367 1231 l 260 1271 b 508 1101 263 1150 368 1101 b 761 1271 663 1101 750 1160 z "},"ă":{"ha":772,"x_min":null,"x_max":null,"o":"m 728 0 l 728 24 b 683 115 693 56 683 76 l 683 532 b 376 763 683 685 579 763 b 56 503 174 763 68 676 l 243 503 b 381 606 253 581 285 606 b 493 531 456 606 493 581 b 338 443 493 451 435 460 l 260 429 b 39 203 111 403 39 339 b 267 -12 39 57 142 -12 b 494 94 350 -12 426 24 b 517 0 494 56 499 22 z m 493 321 b 339 144 493 208 438 144 b 233 225 274 144 233 169 b 344 318 233 282 264 303 l 411 331 b 493 354 463 340 471 343 z m 600 1043 l 489 1043 b 372 954 489 983 435 954 b 256 1043 310 954 256 983 l 144 1043 b 372 833 144 926 256 833 b 600 1043 489 833 600 926 z "},"Ą":{"ha":1003,"x_min":null,"x_max":null,"o":"m 976 -319 l 976 -194 l 889 -194 b 817 -128 840 -194 817 -175 b 846 -58 817 -99 826 -78 b 976 0 881 -22 926 0 l 626 1013 l 396 1013 l 36 0 l 249 0 l 317 204 l 696 204 l 763 0 b 685 -176 713 -46 685 -110 b 889 -319 685 -278 774 -319 z m 639 378 l 375 378 l 507 774 z "},"ą":{"ha":772,"x_min":null,"x_max":null,"o":"m 728 -319 l 728 -194 l 640 -194 b 568 -128 592 -194 568 -175 b 696 0 568 -57 625 0 l 728 0 l 728 24 b 683 115 693 56 683 76 l 683 532 b 376 763 683 685 579 763 b 56 503 174 763 68 676 l 243 503 b 381 606 253 581 285 606 b 493 531 456 606 493 581 b 338 443 493 451 435 460 l 260 429 b 39 203 111 403 39 339 b 267 -12 39 57 142 -12 b 494 94 350 -12 426 24 b 517 0 494 56 499 22 b 436 -176 465 -44 436 -108 b 640 -319 436 -278 525 -319 z m 493 321 b 339 144 493 208 438 144 b 233 225 274 144 233 169 b 344 318 233 282 264 303 l 411 331 b 493 354 463 340 471 343 z "},"Ć":{"ha":1003,"x_min":null,"x_max":null,"o":"m 951 346 l 749 346 b 525 158 736 217 654 158 b 269 503 364 158 269 282 b 532 851 269 726 368 851 b 749 669 644 851 718 800 l 947 669 b 525 1029 929 903 753 1029 b 61 506 239 1029 61 833 b 519 -17 61 181 238 -17 b 951 346 771 -17 939 114 z m 783 1279 l 554 1279 l 449 1092 l 596 1092 z "},"ć":{"ha":772,"x_min":null,"x_max":null,"o":"m 725 260 l 539 260 b 400 144 514 182 475 144 b 242 369 301 144 242 224 b 400 606 242 507 278 606 b 539 469 479 606 517 568 l 725 469 b 401 763 711 653 589 763 b 47 369 178 763 47 625 b 399 -12 47 122 176 -12 b 725 260 581 -12 707 100 z m 646 1044 l 429 1044 l 332 831 l 471 831 z "},"Ĉ":{"ha":1003,"x_min":null,"x_max":null,"o":"m 951 346 l 749 346 b 525 158 736 217 654 158 b 269 503 364 158 269 282 b 532 851 269 726 368 851 b 749 669 644 851 718 800 l 947 669 b 525 1029 929 903 753 1029 b 61 506 239 1029 61 833 b 519 -17 61 181 238 -17 b 951 346 771 -17 939 114 z m 788 1093 l 615 1281 l 438 1281 l 257 1093 l 383 1093 l 521 1190 l 657 1093 z "},"ĉ":{"ha":772,"x_min":null,"x_max":null,"o":"m 725 260 l 539 260 b 400 144 514 182 475 144 b 242 369 301 144 242 224 b 400 606 242 507 278 606 b 539 469 479 606 517 568 l 725 469 b 401 763 711 653 589 763 b 47 369 178 763 47 625 b 399 -12 47 122 176 -12 b 725 260 581 -12 707 100 z m 636 831 l 493 1044 l 317 1044 l 167 831 l 286 831 l 400 938 l 514 831 z "},"Ċ":{"ha":1003,"x_min":null,"x_max":null,"o":"m 951 346 l 749 346 b 525 158 736 217 654 158 b 269 503 364 158 269 282 b 532 851 269 726 368 851 b 749 669 644 851 718 800 l 947 669 b 525 1029 929 903 753 1029 b 61 506 239 1029 61 833 b 519 -17 61 181 238 -17 b 951 346 771 -17 939 114 z m 621 1089 l 621 1283 l 426 1283 l 426 1089 z "},"ċ":{"ha":772,"x_min":null,"x_max":null,"o":"m 725 260 l 539 260 b 400 144 514 182 475 144 b 242 369 301 144 242 224 b 400 606 242 507 278 606 b 539 469 479 606 517 568 l 725 469 b 401 763 711 653 589 763 b 47 369 178 763 47 625 b 399 -12 47 122 176 -12 b 725 260 581 -12 707 100 z m 499 840 l 499 1035 l 304 1035 l 304 840 z "},"Č":{"ha":1003,"x_min":null,"x_max":null,"o":"m 951 346 l 749 346 b 525 158 736 217 654 158 b 269 503 364 158 269 282 b 532 851 269 726 368 851 b 749 669 644 851 718 800 l 947 669 b 525 1029 929 903 753 1029 b 61 506 239 1029 61 833 b 519 -17 61 181 238 -17 b 951 346 771 -17 939 114 z m 789 1281 l 663 1281 l 525 1183 l 389 1281 l 258 1281 l 431 1093 l 608 1093 z "},"č":{"ha":772,"x_min":null,"x_max":null,"o":"m 725 260 l 539 260 b 400 144 514 182 475 144 b 242 369 301 144 242 224 b 400 606 242 507 278 606 b 539 469 479 606 517 568 l 725 469 b 401 763 711 653 589 763 b 47 369 178 763 47 625 b 399 -12 47 122 176 -12 b 725 260 581 -12 707 100 z m 636 1044 l 517 1044 l 403 938 l 289 1044 l 167 1044 l 310 831 l 486 831 z "},"Ď":{"ha":1003,"x_min":null,"x_max":null,"o":"m 946 507 b 822 896 946 663 903 800 b 503 1013 754 978 658 1013 l 107 1013 l 107 0 l 503 0 b 822 118 657 0 753 36 b 946 507 901 213 946 350 z m 738 506 b 503 174 738 283 660 174 l 315 174 l 315 839 l 503 839 b 738 506 660 839 738 729 z m 769 1281 l 643 1281 l 506 1183 l 369 1281 l 239 1281 l 411 1093 l 589 1093 z "},"ď":{"ha":849,"x_min":null,"x_max":null,"o":"m 757 0 l 757 1013 l 563 1013 l 563 653 b 356 763 514 728 449 763 b 40 374 176 763 40 600 b 356 -12 40 161 157 -12 b 563 86 449 -12 514 22 l 563 0 z m 563 371 b 399 150 563 235 496 150 b 235 374 301 150 235 236 b 399 600 235 513 301 600 b 563 371 497 600 563 514 z m 1010 869 l 1010 1013 l 840 1013 l 840 857 l 933 857 b 840 733 935 788 904 746 l 840 669 b 1010 869 939 672 1010 756 z "},"Đ":{"ha":1003,"x_min":null,"x_max":null,"o":"m 946 507 b 824 896 946 654 900 801 b 503 1013 757 978 661 1013 l 107 1013 l 107 582 l 0 582 l 0 471 l 107 471 l 107 0 l 503 0 b 824 118 661 0 757 35 b 946 507 900 214 946 357 z m 746 506 b 503 174 746 313 693 174 l 315 174 l 315 471 l 524 471 l 524 582 l 315 582 l 315 839 l 503 839 b 746 506 693 839 746 701 z "},"đ":{"ha":849,"x_min":null,"x_max":null,"o":"m 840 828 l 840 921 l 757 921 l 757 1013 l 563 1013 l 563 921 l 378 921 l 378 828 l 563 828 l 563 653 b 356 763 514 728 450 763 b 40 374 176 763 40 600 b 356 -12 40 149 176 -12 b 563 96 449 -12 514 22 l 563 0 l 757 0 l 757 828 z m 563 371 b 399 150 563 235 496 150 b 235 374 301 150 235 236 b 399 600 235 513 303 600 b 563 371 497 600 563 514 z "},"Ē":{"ha":926,"x_min":null,"x_max":null,"o":"m 867 0 l 867 174 l 318 174 l 318 436 l 803 436 l 803 610 l 318 610 l 318 839 l 842 839 l 842 1013 l 110 1013 l 110 0 z m 683 1132 l 683 1242 l 268 1242 l 268 1132 z "},"ē":{"ha":772,"x_min":null,"x_max":null,"o":"m 729 347 b 378 763 729 606 599 763 b 31 365 163 763 31 617 b 374 -12 31 125 161 -12 b 721 211 542 -12 678 64 l 529 211 b 381 136 513 157 451 136 b 225 324 289 136 231 178 l 728 324 z m 526 453 l 228 453 b 375 614 240 557 289 614 b 526 453 458 614 517 560 z m 583 883 l 583 993 l 168 993 l 168 883 z "},"Ĕ":{"ha":926,"x_min":null,"x_max":null,"o":"m 867 0 l 867 174 l 318 174 l 318 436 l 803 436 l 803 610 l 318 610 l 318 839 l 842 839 l 842 1013 l 110 1013 l 110 0 z m 726 1271 l 628 1271 b 476 1215 622 1232 567 1215 b 324 1271 382 1215 332 1231 l 225 1271 b 474 1101 228 1150 333 1101 b 726 1271 628 1101 715 1160 z "},"ĕ":{"ha":772,"x_min":null,"x_max":null,"o":"m 729 347 b 378 763 729 606 599 763 b 31 365 163 763 31 617 b 374 -12 31 125 161 -12 b 721 211 542 -12 678 64 l 529 211 b 381 136 513 157 451 136 b 225 324 289 136 231 178 l 728 324 z m 526 453 l 228 453 b 375 614 240 557 289 614 b 526 453 458 614 517 560 z m 601 1043 l 490 1043 b 374 954 490 983 436 954 b 257 1043 311 954 257 983 l 146 1043 b 374 833 146 926 257 833 b 601 1043 490 833 601 926 z "},"Ė":{"ha":926,"x_min":null,"x_max":null,"o":"m 867 0 l 867 174 l 318 174 l 318 436 l 803 436 l 803 610 l 318 610 l 318 839 l 842 839 l 842 1013 l 110 1013 l 110 0 z m 575 1089 l 575 1283 l 381 1283 l 381 1089 z "},"ė":{"ha":772,"x_min":null,"x_max":null,"o":"m 729 347 b 378 763 729 606 599 763 b 31 365 163 763 31 617 b 374 -12 31 125 161 -12 b 721 211 542 -12 678 64 l 529 211 b 381 136 513 157 451 136 b 225 324 289 136 231 178 l 728 324 z m 526 453 l 228 453 b 375 614 240 557 289 614 b 526 453 458 614 517 560 z m 475 840 l 475 1035 l 281 1035 l 281 840 z "},"Ę":{"ha":926,"x_min":null,"x_max":null,"o":"m 867 -319 l 867 -194 l 779 -194 b 707 -128 731 -194 707 -175 b 736 -58 707 -99 717 -78 b 867 0 771 -22 817 0 l 867 174 l 318 174 l 318 436 l 803 436 l 803 610 l 318 610 l 318 839 l 842 839 l 842 1013 l 110 1013 l 110 0 l 676 0 b 575 -176 600 -68 575 -114 b 779 -319 575 -278 664 -319 z "},"ę":{"ha":772,"x_min":null,"x_max":null,"o":"m 729 347 b 378 763 729 606 599 763 b 31 365 163 763 31 617 b 374 -12 31 125 161 -12 b 408 -11 385 -12 397 -12 b 319 -176 342 -74 319 -118 b 524 -319 319 -278 408 -319 l 611 -319 l 611 -194 l 524 -194 b 451 -128 475 -194 451 -175 b 556 24 451 -61 494 -4 b 721 211 636 60 694 122 l 529 211 b 381 136 513 157 451 136 b 225 324 289 136 231 178 l 728 324 z m 526 453 l 228 453 b 375 614 240 557 289 614 b 526 453 458 614 517 560 z "},"Ě":{"ha":926,"x_min":null,"x_max":null,"o":"m 867 0 l 867 174 l 318 174 l 318 436 l 803 436 l 803 610 l 318 610 l 318 839 l 842 839 l 842 1013 l 110 1013 l 110 0 z m 743 1281 l 617 1281 l 479 1183 l 343 1281 l 213 1281 l 385 1093 l 563 1093 z "},"ě":{"ha":772,"x_min":null,"x_max":null,"o":"m 729 347 b 378 763 729 606 599 763 b 31 365 163 763 31 617 b 374 -12 31 125 161 -12 b 721 211 542 -12 678 64 l 529 211 b 381 136 513 157 451 136 b 225 324 289 136 231 178 l 728 324 z m 526 453 l 228 453 b 375 614 240 557 289 614 b 526 453 458 614 517 560 z m 613 1044 l 493 1044 l 379 938 l 265 1044 l 143 1044 l 286 831 l 463 831 z "},"Ĝ":{"ha":1081,"x_min":null,"x_max":null,"o":"m 988 0 l 988 544 l 582 544 l 582 371 l 813 371 b 556 161 799 244 679 161 b 267 510 388 161 267 301 b 550 851 267 728 374 851 b 792 689 664 851 751 807 l 988 689 b 549 1029 963 897 793 1029 b 58 507 257 1029 58 822 b 532 -17 58 200 258 -17 b 838 139 668 -17 760 32 l 863 0 z m 814 1093 l 642 1281 l 464 1281 l 283 1093 l 410 1093 l 547 1190 l 683 1093 z "},"ĝ":{"ha":849,"x_min":null,"x_max":null,"o":"m 751 -25 l 751 750 l 567 750 l 567 635 b 358 763 508 724 444 763 b 47 367 181 763 47 599 b 354 -12 47 133 169 -12 b 567 86 442 -12 494 14 l 567 -25 b 401 -178 567 -115 499 -178 b 264 -90 328 -178 279 -147 l 63 -90 b 394 -303 65 -212 189 -303 b 751 -25 621 -303 751 -201 z m 569 369 b 397 150 569 233 499 150 b 242 369 306 150 242 233 b 400 600 242 511 306 600 b 569 369 497 600 569 508 z m 660 831 l 517 1044 l 340 1044 l 190 831 l 310 831 l 424 938 l 538 831 z "},"Ğ":{"ha":1081,"x_min":null,"x_max":null,"o":"m 988 0 l 988 544 l 582 544 l 582 371 l 813 371 b 556 161 799 244 679 161 b 267 510 388 161 267 301 b 550 851 267 728 374 851 b 792 689 664 851 751 807 l 988 689 b 549 1029 963 897 793 1029 b 58 507 257 1029 58 822 b 532 -17 58 200 258 -17 b 838 139 668 -17 760 32 l 863 0 z m 799 1271 l 700 1271 b 549 1215 694 1232 639 1215 b 396 1271 454 1215 404 1231 l 297 1271 b 546 1101 300 1150 406 1101 b 799 1271 700 1101 788 1160 z "},"ğ":{"ha":849,"x_min":null,"x_max":null,"o":"m 751 -25 l 751 750 l 567 750 l 567 635 b 358 763 508 724 444 763 b 47 367 181 763 47 599 b 354 -12 47 133 169 -12 b 567 86 442 -12 494 14 l 567 -25 b 401 -178 567 -115 499 -178 b 264 -90 328 -178 279 -147 l 63 -90 b 394 -303 65 -212 189 -303 b 751 -25 621 -303 751 -201 z m 569 369 b 397 150 569 233 499 150 b 242 369 306 150 242 233 b 400 600 242 511 306 600 b 569 369 497 600 569 508 z m 649 1043 l 538 1043 b 421 954 538 983 483 954 b 304 1043 358 954 304 983 l 193 1043 b 421 833 193 926 304 833 b 649 1043 538 833 649 926 z "},"Ġ":{"ha":1081,"x_min":null,"x_max":null,"o":"m 988 0 l 988 544 l 582 544 l 582 371 l 813 371 b 556 161 799 244 679 161 b 267 510 388 161 267 301 b 550 851 267 728 374 851 b 792 689 664 851 751 807 l 988 689 b 549 1029 963 897 793 1029 b 58 507 257 1029 58 822 b 532 -17 58 200 258 -17 b 838 139 668 -17 760 32 l 863 0 z m 647 1089 l 647 1283 l 453 1283 l 453 1089 z "},"ġ":{"ha":849,"x_min":null,"x_max":null,"o":"m 751 -25 l 751 750 l 567 750 l 567 635 b 358 763 508 724 444 763 b 47 367 181 763 47 599 b 354 -12 47 133 169 -12 b 567 86 442 -12 494 14 l 567 -25 b 401 -178 567 -115 499 -178 b 264 -90 328 -178 279 -147 l 63 -90 b 394 -303 65 -212 189 -303 b 751 -25 621 -303 751 -201 z m 569 369 b 397 150 569 233 499 150 b 242 369 306 150 242 233 b 400 600 242 511 306 600 b 569 369 497 600 569 508 z m 522 840 l 522 1035 l 328 1035 l 328 840 z "},"Ģ":{"ha":1081,"x_min":null,"x_max":null,"o":"m 988 0 l 988 544 l 582 544 l 582 371 l 813 371 b 556 161 799 244 679 161 b 267 510 388 161 267 301 b 550 851 267 728 374 851 b 792 689 664 851 751 807 l 988 689 b 549 1029 963 897 793 1029 b 58 507 257 1029 58 822 b 532 -17 58 200 258 -17 b 838 139 668 -17 760 32 l 863 0 z m 625 -226 l 625 -83 l 456 -83 l 456 -239 l 549 -239 b 456 -362 550 -308 519 -350 l 456 -426 b 625 -226 554 -424 625 -340 z "},"ģ":{"ha":849,"x_min":null,"x_max":null,"o":"m 511 818 l 511 974 l 418 974 b 511 1097 417 1043 447 1085 l 511 1161 b 342 961 413 1158 342 1075 l 342 818 z m 751 -25 l 751 750 l 567 750 l 567 635 b 358 763 508 724 444 763 b 47 367 181 763 47 599 b 354 -12 47 133 169 -12 b 567 86 442 -12 494 14 l 567 -25 b 401 -178 567 -115 499 -178 b 264 -90 328 -178 279 -147 l 63 -90 b 394 -303 65 -212 189 -303 b 751 -25 621 -303 751 -201 z m 569 369 b 397 150 569 233 499 150 b 242 369 306 150 242 233 b 400 600 242 511 306 600 b 569 369 497 600 569 508 z "},"Ĥ":{"ha":1003,"x_min":null,"x_max":null,"o":"m 913 0 l 913 1013 l 704 1013 l 704 633 l 303 633 l 303 1013 l 94 1013 l 94 0 l 303 0 l 303 460 l 704 460 l 704 0 z m 769 1093 l 597 1281 l 419 1281 l 239 1093 l 365 1093 l 503 1190 l 639 1093 z "},"ĥ":{"ha":849,"x_min":null,"x_max":null,"o":"m 751 0 l 751 503 b 507 763 751 678 649 763 b 288 642 411 763 342 724 l 288 1013 l 93 1013 l 93 0 l 288 0 l 288 450 b 438 597 288 536 350 597 b 557 458 507 597 557 560 l 557 0 z m 690 1093 l 518 1281 l 340 1281 l 160 1093 l 286 1093 l 424 1190 l 560 1093 z "},"Ħ":{"ha":1003,"x_min":null,"x_max":null,"o":"m 1017 763 l 1017 857 l 913 857 l 913 1013 l 704 1013 l 704 857 l 303 857 l 303 1013 l 94 1013 l 94 857 l -10 857 l -10 763 l 94 763 l 94 0 l 303 0 l 303 460 l 704 460 l 704 0 l 913 0 l 913 763 z m 704 633 l 303 633 l 303 763 l 704 763 z "},"ħ":{"ha":922,"x_min":null,"x_max":null,"o":"m 839 0 l 839 503 b 594 763 839 678 736 763 b 375 642 499 763 429 724 l 375 790 l 513 832 l 513 931 l 375 889 l 375 1013 l 181 1013 l 181 829 l 83 800 l 83 700 l 181 731 l 181 0 l 375 0 l 375 450 b 525 597 375 536 438 597 b 644 458 594 597 644 560 l 644 0 z "},"Ĩ":{"ha":386,"x_min":null,"x_max":null,"o":"m 296 0 l 296 1013 l 88 1013 l 88 0 z m 440 1275 l 353 1275 b 303 1208 349 1231 332 1208 b 256 1217 293 1208 265 1213 l 157 1251 b 79 1269 107 1269 106 1269 b -51 1097 3 1269 -46 1206 l 36 1097 b 92 1160 43 1142 58 1160 b 133 1151 104 1160 117 1157 l 232 1115 b 308 1099 261 1104 288 1099 b 440 1275 390 1099 435 1157 z "},"ĩ":{"ha":386,"x_min":null,"x_max":null,"o":"m 288 0 l 288 750 l 93 750 l 93 0 z m 440 1026 l 353 1026 b 303 960 349 982 332 960 b 256 968 293 960 265 964 l 157 1003 b 79 1021 107 1021 106 1021 b -51 849 3 1021 -46 957 l 36 849 b 92 911 43 893 58 911 b 133 903 104 911 117 908 l 232 867 b 308 850 261 856 288 850 b 440 1026 390 850 435 908 z "},"Ī":{"ha":386,"x_min":null,"x_max":null,"o":"m 296 0 l 296 1013 l 88 1013 l 88 0 z m 399 1132 l 399 1242 l -17 1242 l -17 1132 z "},"ī":{"ha":386,"x_min":null,"x_max":null,"o":"m 288 0 l 288 750 l 93 750 l 93 0 z m 399 883 l 399 993 l -17 993 l -17 883 z "},"Ĭ":{"ha":386,"x_min":null,"x_max":null,"o":"m 296 0 l 296 1013 l 88 1013 l 88 0 z m 442 1271 l 343 1271 b 192 1215 338 1232 282 1215 b 39 1271 97 1215 47 1231 l -60 1271 b 189 1101 -57 1150 49 1101 b 442 1271 343 1101 431 1160 z "},"ĭ":{"ha":386,"x_min":null,"x_max":null,"o":"m 288 0 l 288 750 l 93 750 l 93 0 z m 417 1043 l 306 1043 b 189 954 306 983 251 954 b 72 1043 126 954 72 983 l -39 1043 b 189 833 -39 926 72 833 b 417 1043 306 833 417 926 z "},"Į":{"ha":386,"x_min":null,"x_max":null,"o":"m 324 -319 l 324 -194 l 236 -194 b 164 -128 188 -194 164 -175 b 193 -58 164 -99 174 -78 b 296 0 221 -29 257 -10 l 296 1013 l 88 1013 l 88 0 l 133 0 b 32 -176 57 -68 32 -114 b 236 -319 32 -278 121 -319 z "},"į":{"ha":386,"x_min":null,"x_max":null,"o":"m 329 -319 l 329 -194 l 242 -194 b 169 -128 193 -194 169 -175 b 199 -58 169 -99 179 -78 b 288 0 224 -32 254 -12 l 288 750 l 93 750 l 93 0 l 139 0 b 38 -176 63 -68 38 -114 b 242 -319 38 -278 126 -319 z m 290 840 l 290 1035 l 96 1035 l 96 840 z "},"İ":{"ha":386,"x_min":null,"x_max":null,"o":"m 296 0 l 296 1013 l 88 1013 l 88 0 z m 290 1089 l 290 1283 l 96 1283 l 96 1089 z "},"ı":{"ha":386,"x_min":null,"x_max":null,"o":"m 288 0 l 288 750 l 93 750 l 93 0 z "},"Ĳ":{"ha":1133,"x_min":null,"x_max":null,"o":"m 292 0 l 292 1013 l 83 1013 l 83 0 z m 1050 279 l 1050 1013 l 842 1013 l 842 279 b 729 161 842 203 801 161 b 617 293 650 161 617 200 l 617 375 l 408 375 l 408 290 b 725 -17 408 89 536 -17 b 1050 279 932 -17 1050 90 z "},"ĳ":{"ha":751,"x_min":null,"x_max":null,"o":"m 278 0 l 278 750 l 83 750 l 83 0 z m 281 840 l 281 1035 l 86 1035 l 86 840 z m 668 -131 l 668 750 l 474 750 l 474 -87 b 417 -146 474 -131 458 -146 b 382 -140 404 -146 396 -144 l 382 -296 b 497 -303 421 -300 469 -303 b 668 -131 618 -303 668 -253 z m 668 840 l 668 1035 l 474 1035 l 474 840 z "},"Ĵ":{"ha":772,"x_min":null,"x_max":null,"o":"m 675 279 l 675 1013 l 467 1013 l 467 279 b 354 161 467 203 426 161 b 242 293 275 161 242 200 l 242 375 l 33 375 l 33 290 b 350 -17 33 89 161 -17 b 675 279 557 -17 675 90 z m 836 1093 l 664 1281 l 486 1281 l 306 1093 l 432 1093 l 569 1190 l 706 1093 z "},"ĵ":{"ha":386,"x_min":null,"x_max":null,"o":"m 292 -131 l 292 750 l 97 750 l 97 -87 b 40 -146 97 -131 82 -146 b 6 -140 28 -146 19 -144 l 6 -296 b 121 -303 44 -300 93 -303 b 292 -131 242 -303 292 -253 z m 429 831 l 286 1044 l 110 1044 l -40 831 l 79 831 l 193 938 l 307 831 z "},"Ķ":{"ha":1003,"x_min":null,"x_max":null,"o":"m 996 0 l 549 576 l 953 1013 l 707 1013 l 311 568 l 311 1013 l 103 1013 l 103 0 l 311 0 l 311 339 l 415 447 l 747 0 z m 578 -226 l 578 -83 l 408 -83 l 408 -239 l 501 -239 b 408 -362 503 -308 472 -350 l 408 -426 b 578 -226 507 -424 578 -340 z "},"ķ":{"ha":772,"x_min":null,"x_max":null,"o":"m 761 0 l 488 467 l 743 750 l 522 750 l 276 458 l 276 1013 l 82 1013 l 82 0 l 276 0 l 276 246 l 354 331 l 533 0 z m 463 -226 l 463 -83 l 293 -83 l 293 -239 l 386 -239 b 293 -362 388 -308 357 -350 l 293 -426 b 463 -226 392 -424 463 -340 z "},"Ĺ":{"ha":849,"x_min":null,"x_max":null,"o":"m 804 0 l 804 174 l 319 174 l 319 1013 l 111 1013 l 111 0 z m 447 1279 l 218 1279 l 113 1092 l 260 1092 z "},"ĺ":{"ha":386,"x_min":null,"x_max":null,"o":"m 288 0 l 288 1013 l 93 1013 l 93 0 z m 429 1279 l 200 1279 l 94 1092 l 242 1092 z "},"Ļ":{"ha":849,"x_min":null,"x_max":null,"o":"m 804 0 l 804 174 l 319 174 l 319 1013 l 111 1013 l 111 0 z m 535 -226 l 535 -83 l 365 -83 l 365 -239 l 458 -239 b 365 -362 460 -308 429 -350 l 365 -426 b 535 -226 464 -424 535 -340 z "},"ļ":{"ha":386,"x_min":null,"x_max":null,"o":"m 288 0 l 288 1013 l 93 1013 l 93 0 z m 269 -226 l 269 -83 l 100 -83 l 100 -239 l 193 -239 b 100 -362 194 -308 164 -350 l 100 -426 b 269 -226 199 -424 269 -340 z "},"Ľ":{"ha":849,"x_min":null,"x_max":null,"o":"m 804 0 l 804 174 l 319 174 l 319 1013 l 111 1013 l 111 0 z m 572 869 l 572 1013 l 403 1013 l 403 857 l 496 857 b 403 733 497 788 467 746 l 403 669 b 572 869 501 672 572 756 z "},"ľ":{"ha":386,"x_min":null,"x_max":null,"o":"m 288 0 l 288 1013 l 93 1013 l 93 0 z m 540 869 l 540 1013 l 371 1013 l 371 857 l 464 857 b 371 733 465 788 435 746 l 371 669 b 540 869 469 672 540 756 z "},"Ŀ":{"ha":849,"x_min":null,"x_max":null,"o":"m 804 0 l 804 174 l 319 174 l 319 1013 l 111 1013 l 111 0 z m 738 422 l 738 617 l 543 617 l 543 422 z "},"ŀ":{"ha":556,"x_min":null,"x_max":null,"o":"m 288 0 l 288 1013 l 93 1013 l 93 0 z m 565 422 l 565 617 l 371 617 l 371 422 z "},"Ł":{"ha":994,"x_min":null,"x_max":null,"o":"m 901 0 l 901 174 l 417 174 l 417 415 l 708 592 l 708 778 l 417 600 l 417 1013 l 208 1013 l 208 488 l 47 389 l 47 204 l 208 301 l 208 0 z "},"ł":{"ha":581,"x_min":null,"x_max":null,"o":"m 540 631 l 540 801 l 385 688 l 385 1013 l 190 1013 l 190 558 l 44 451 l 44 281 l 190 388 l 190 0 l 385 0 l 385 517 z "},"Ń":{"ha":1003,"x_min":null,"x_max":null,"o":"m 918 0 l 918 1013 l 710 1013 l 710 324 l 308 1013 l 94 1013 l 94 0 l 303 0 l 303 700 l 710 0 z m 763 1279 l 533 1279 l 428 1092 l 575 1092 z "},"ń":{"ha":849,"x_min":null,"x_max":null,"o":"m 758 0 l 758 503 b 507 763 758 668 667 763 b 282 642 406 763 338 725 l 282 750 l 88 750 l 88 0 l 282 0 l 282 450 b 439 597 282 539 344 597 b 564 463 522 597 564 551 l 564 0 z m 669 1044 l 453 1044 l 356 831 l 494 831 z "},"Ņ":{"ha":1003,"x_min":null,"x_max":null,"o":"m 918 0 l 918 1013 l 710 1013 l 710 324 l 308 1013 l 94 1013 l 94 0 l 303 0 l 303 700 l 710 0 z m 578 -226 l 578 -83 l 408 -83 l 408 -239 l 501 -239 b 408 -362 503 -308 472 -350 l 408 -426 b 578 -226 507 -424 578 -340 z "},"ņ":{"ha":849,"x_min":null,"x_max":null,"o":"m 758 0 l 758 503 b 507 763 758 668 667 763 b 282 642 406 763 338 725 l 282 750 l 88 750 l 88 0 l 282 0 l 282 450 b 439 597 282 539 344 597 b 564 463 522 597 564 551 l 564 0 z m 501 -226 l 501 -83 l 332 -83 l 332 -239 l 425 -239 b 332 -362 426 -308 396 -350 l 332 -426 b 501 -226 431 -424 501 -340 z "},"Ň":{"ha":1003,"x_min":null,"x_max":null,"o":"m 918 0 l 918 1013 l 710 1013 l 710 324 l 308 1013 l 94 1013 l 94 0 l 303 0 l 303 700 l 710 0 z m 768 1281 l 642 1281 l 504 1183 l 368 1281 l 238 1281 l 410 1093 l 588 1093 z "},"ň":{"ha":849,"x_min":null,"x_max":null,"o":"m 758 0 l 758 503 b 507 763 758 668 667 763 b 282 642 406 763 338 725 l 282 750 l 88 750 l 88 0 l 282 0 l 282 450 b 439 597 282 539 344 597 b 564 463 522 597 564 551 l 564 0 z m 660 1044 l 540 1044 l 426 938 l 313 1044 l 190 1044 l 333 831 l 510 831 z "},"Ŋ":{"ha":1003,"x_min":null,"x_max":null,"o":"m 918 -56 l 918 1013 l 710 1013 l 710 324 l 308 1013 l 94 1013 l 94 0 l 303 0 l 303 700 l 710 0 l 710 -65 b 597 -174 710 -125 658 -174 b 486 -65 525 -174 490 -142 l 276 -65 b 593 -351 285 -253 411 -351 b 918 -56 800 -351 918 -244 z "},"ŋ":{"ha":849,"x_min":null,"x_max":null,"o":"m 758 -131 l 758 503 b 507 763 758 668 667 763 b 282 642 406 763 338 725 l 282 750 l 88 750 l 88 0 l 282 0 l 282 450 b 439 597 282 539 344 597 b 564 463 522 597 564 551 l 564 -87 b 507 -146 564 -131 549 -146 b 472 -140 494 -146 486 -144 l 472 -296 b 588 -303 511 -300 560 -303 b 758 -131 708 -303 758 -253 z "},"Ō":{"ha":1081,"x_min":null,"x_max":null,"o":"m 1031 500 b 542 1029 1031 806 838 1029 b 56 507 244 1029 56 797 b 543 -17 56 204 246 -17 b 1031 500 838 -17 1031 204 z m 822 501 b 543 161 822 294 710 161 b 264 507 375 161 264 294 b 543 851 264 711 375 851 b 822 501 714 851 822 713 z m 749 1132 l 749 1242 l 333 1242 l 333 1132 z "},"ō":{"ha":849,"x_min":null,"x_max":null,"o":"m 790 369 b 418 763 790 624 653 763 b 49 375 189 763 49 621 b 419 -12 49 128 189 -12 b 790 369 647 -12 790 129 z m 596 372 b 419 144 596 232 524 144 b 243 375 314 144 243 232 b 419 606 243 518 314 606 b 596 372 526 606 596 519 z m 631 883 l 631 993 l 215 993 l 215 883 z "},"Ŏ":{"ha":1081,"x_min":null,"x_max":null,"o":"m 1031 500 b 542 1029 1031 806 838 1029 b 56 507 244 1029 56 797 b 543 -17 56 204 246 -17 b 1031 500 838 -17 1031 204 z m 822 501 b 543 161 822 294 710 161 b 264 507 375 161 264 294 b 543 851 264 711 375 851 b 822 501 714 851 822 713 z m 792 1271 l 693 1271 b 542 1215 688 1232 632 1215 b 389 1271 447 1215 397 1231 l 290 1271 b 539 1101 293 1150 399 1101 b 792 1271 693 1101 781 1160 z "},"ŏ":{"ha":849,"x_min":null,"x_max":null,"o":"m 790 369 b 418 763 790 624 653 763 b 49 375 189 763 49 621 b 419 -12 49 128 189 -12 b 790 369 647 -12 790 129 z m 596 372 b 419 144 596 232 524 144 b 243 375 314 144 243 232 b 419 606 243 518 314 606 b 596 372 526 606 596 519 z m 649 1043 l 538 1043 b 421 954 538 983 483 954 b 304 1043 358 954 304 983 l 193 1043 b 421 833 193 926 304 833 b 649 1043 538 833 649 926 z "},"Ő":{"ha":1081,"x_min":null,"x_max":null,"o":"m 1031 500 b 542 1029 1031 806 838 1029 b 56 507 244 1029 56 797 b 543 -17 56 204 246 -17 b 1031 500 838 -17 1031 204 z m 822 501 b 543 161 822 294 710 161 b 264 507 375 161 264 294 b 543 851 264 711 375 851 b 822 501 714 851 822 713 z m 618 1307 l 443 1307 l 346 1093 l 464 1093 z m 893 1307 l 718 1307 l 621 1093 l 739 1093 z "},"ő":{"ha":849,"x_min":null,"x_max":null,"o":"m 790 369 b 418 763 790 624 653 763 b 49 375 189 763 49 621 b 419 -12 49 128 189 -12 b 790 369 647 -12 790 129 z m 596 372 b 419 144 596 232 524 144 b 243 375 314 144 243 232 b 419 606 243 518 314 606 b 596 372 526 606 596 519 z m 501 1044 l 326 1044 l 229 831 l 347 831 z m 776 1044 l 601 1044 l 504 831 l 622 831 z "},"Œ":{"ha":1389,"x_min":null,"x_max":null,"o":"m 1347 0 l 1347 174 l 867 174 l 867 436 l 1282 436 l 1282 610 l 867 610 l 867 839 l 1321 839 l 1321 1013 l 667 1013 l 667 940 b 457 1029 600 1006 546 1029 b 39 499 210 1029 39 811 b 451 -12 39 189 211 -12 b 667 101 546 -12 599 15 l 667 0 z m 658 267 b 493 165 618 196 568 165 b 247 499 346 165 247 288 b 494 851 247 711 346 851 b 658 750 569 851 618 821 z "},"œ":{"ha":1311,"x_min":null,"x_max":null,"o":"m 1278 347 b 924 763 1278 606 1149 763 b 674 657 819 763 733 726 b 403 763 606 728 514 763 b 32 365 172 763 32 613 b 403 -12 32 138 172 -12 b 674 92 514 -12 603 22 b 922 -12 733 24 822 -12 b 1269 211 1090 -12 1225 83 l 1078 211 b 932 136 1060 175 1000 136 b 774 314 833 136 776 176 l 1276 314 b 1278 347 1278 331 1278 338 z m 579 363 b 403 144 579 242 507 144 b 226 365 297 144 226 242 b 403 606 226 508 297 606 b 579 363 510 606 579 510 z m 1075 443 l 776 443 b 925 614 786 554 838 614 b 1075 443 1004 614 1063 561 z "},"Ŕ":{"ha":1003,"x_min":null,"x_max":null,"o":"m 940 0 l 940 38 b 896 121 908 56 896 76 b 756 489 890 419 885 433 b 926 739 869 533 926 615 b 654 1013 926 896 833 1013 l 111 1013 l 111 0 l 319 0 l 319 401 l 558 401 b 688 281 649 401 688 365 l 685 174 b 717 0 685 79 690 49 z m 718 710 b 571 575 718 619 689 575 l 319 575 l 319 839 l 571 839 b 718 710 685 839 718 797 z m 763 1279 l 533 1279 l 428 1092 l 575 1092 z "},"ŕ":{"ha":540,"x_min":null,"x_max":null,"o":"m 514 564 l 514 761 b 490 763 503 763 496 763 b 282 603 401 763 324 704 l 282 750 l 88 750 l 88 0 l 282 0 l 282 399 b 453 569 282 513 339 569 b 514 564 474 569 488 568 z m 526 1044 l 310 1044 l 213 831 l 351 831 z "},"Ŗ":{"ha":1003,"x_min":null,"x_max":null,"o":"m 940 0 l 940 38 b 896 121 908 56 896 76 b 756 489 890 419 885 433 b 926 739 869 533 926 615 b 654 1013 926 896 833 1013 l 111 1013 l 111 0 l 319 0 l 319 401 l 558 401 b 688 281 649 401 688 365 l 685 174 b 717 0 685 79 690 49 z m 718 710 b 571 575 718 619 689 575 l 319 575 l 319 839 l 571 839 b 718 710 685 839 718 797 z m 578 -226 l 578 -83 l 408 -83 l 408 -239 l 501 -239 b 408 -362 503 -308 472 -350 l 408 -426 b 578 -226 507 -424 578 -340 z "},"ŗ":{"ha":540,"x_min":null,"x_max":null,"o":"m 514 564 l 514 761 b 490 763 503 763 496 763 b 282 603 401 763 324 704 l 282 750 l 88 750 l 88 0 l 282 0 l 282 399 b 453 569 282 513 339 569 b 514 564 474 569 488 568 z m 261 -226 l 261 -83 l 92 -83 l 92 -239 l 185 -239 b 92 -362 186 -308 156 -350 l 92 -426 b 261 -226 190 -424 261 -340 z "},"Ř":{"ha":1003,"x_min":null,"x_max":null,"o":"m 940 0 l 940 38 b 896 121 908 56 896 76 b 756 489 890 419 885 433 b 926 739 869 533 926 615 b 654 1013 926 896 833 1013 l 111 1013 l 111 0 l 319 0 l 319 401 l 558 401 b 688 281 649 401 688 365 l 685 174 b 717 0 685 79 690 49 z m 718 710 b 571 575 718 619 689 575 l 319 575 l 319 839 l 571 839 b 718 710 685 839 718 797 z m 768 1281 l 642 1281 l 504 1183 l 368 1281 l 238 1281 l 410 1093 l 588 1093 z "},"ř":{"ha":540,"x_min":null,"x_max":null,"o":"m 514 564 l 514 761 b 490 763 503 763 496 763 b 282 603 401 763 324 704 l 282 750 l 88 750 l 88 0 l 282 0 l 282 399 b 453 569 282 513 339 569 b 514 564 474 569 488 568 z m 517 1044 l 397 1044 l 283 938 l 169 1044 l 47 1044 l 190 831 l 367 831 z "},"Ś":{"ha":926,"x_min":null,"x_max":null,"o":"m 879 304 b 611 575 879 464 799 539 l 453 606 b 261 738 304 635 261 664 b 436 863 261 814 329 863 b 649 704 568 863 649 807 l 843 704 b 446 1029 843 918 693 1029 b 63 718 203 1029 63 915 b 347 446 63 560 142 486 l 489 418 b 679 279 628 390 679 361 b 475 150 679 194 601 150 b 247 318 333 150 247 210 l 44 318 b 464 -17 44 101 206 -17 b 879 304 725 -17 879 99 z m 717 1279 l 488 1279 l 382 1092 l 529 1092 z "},"ś":{"ha":772,"x_min":null,"x_max":null,"o":"m 722 222 l 722 232 b 575 411 722 318 674 382 l 329 482 b 261 540 275 497 261 510 b 374 610 261 582 306 610 b 514 508 467 610 513 576 l 701 508 b 375 763 699 667 576 763 b 67 513 185 763 67 667 b 231 328 67 421 92 371 l 463 256 b 528 204 511 240 528 225 b 383 140 528 158 474 140 b 231 238 294 140 247 157 l 40 238 b 394 -12 46 74 167 -12 b 722 222 606 -12 722 71 z m 631 1044 l 414 1044 l 317 831 l 456 831 z "},"Ŝ":{"ha":926,"x_min":null,"x_max":null,"o":"m 879 304 b 611 575 879 464 799 539 l 453 606 b 261 738 304 635 261 664 b 436 863 261 814 329 863 b 649 704 568 863 649 807 l 843 704 b 446 1029 843 918 693 1029 b 63 718 203 1029 63 915 b 347 446 63 560 142 486 l 489 418 b 679 279 628 390 679 361 b 475 150 679 194 601 150 b 247 318 333 150 247 210 l 44 318 b 464 -17 44 101 206 -17 b 879 304 725 -17 879 99 z m 721 1093 l 549 1281 l 371 1281 l 190 1093 l 317 1093 l 454 1190 l 590 1093 z "},"ŝ":{"ha":772,"x_min":null,"x_max":null,"o":"m 722 222 l 722 232 b 575 411 722 318 674 382 l 329 482 b 261 540 275 497 261 510 b 374 610 261 582 306 610 b 514 508 467 610 513 576 l 701 508 b 375 763 699 667 576 763 b 67 513 185 763 67 667 b 231 328 67 421 92 371 l 463 256 b 528 204 511 240 528 225 b 383 140 528 158 474 140 b 231 238 294 140 247 157 l 40 238 b 394 -12 46 74 167 -12 b 722 222 606 -12 722 71 z m 621 831 l 478 1044 l 301 1044 l 151 831 l 271 831 l 385 938 l 499 831 z "},"Ş":{"ha":926,"x_min":null,"x_max":null,"o":"m 879 304 b 611 575 879 464 799 539 l 453 606 b 261 738 304 635 261 664 b 436 863 261 814 329 863 b 649 704 568 863 649 807 l 843 704 b 446 1029 843 918 693 1029 b 63 718 203 1029 63 915 b 347 446 63 560 142 486 l 489 418 b 679 279 628 390 679 361 b 475 150 679 194 601 150 b 247 318 333 150 247 210 l 44 318 b 415 -15 44 115 186 -1 l 358 -136 l 447 -136 b 518 -179 490 -136 518 -150 b 439 -236 518 -211 483 -236 b 293 -194 400 -236 367 -226 l 267 -279 b 458 -318 357 -310 397 -318 b 638 -176 574 -318 638 -260 b 532 -69 638 -115 597 -69 l 476 -69 l 503 -15 b 879 304 740 -4 879 108 z "},"ş":{"ha":772,"x_min":null,"x_max":null,"o":"m 722 222 l 722 232 b 575 411 722 318 674 382 l 329 482 b 261 540 275 497 261 510 b 374 610 261 582 306 610 b 514 508 467 610 513 576 l 701 508 b 375 763 699 667 576 763 b 67 513 185 763 67 667 b 231 328 67 421 92 371 l 463 256 b 528 204 511 240 528 225 b 383 140 528 158 474 140 b 231 238 294 140 247 157 l 40 238 b 328 -10 46 90 143 6 l 268 -136 l 357 -136 b 428 -179 400 -136 428 -150 b 349 -236 428 -211 393 -236 b 203 -194 310 -236 276 -226 l 176 -279 b 368 -318 267 -310 307 -318 b 547 -176 483 -318 547 -260 b 442 -69 547 -115 507 -69 l 386 -69 l 414 -12 b 722 222 613 -7 722 75 z "},"Š":{"ha":926,"x_min":null,"x_max":null,"o":"m 879 304 b 611 575 879 464 799 539 l 453 606 b 261 738 304 635 261 664 b 436 863 261 814 329 863 b 649 704 568 863 649 807 l 843 704 b 446 1029 843 918 693 1029 b 63 718 203 1029 63 915 b 347 446 63 560 142 486 l 489 418 b 679 279 628 390 679 361 b 475 150 679 194 601 150 b 247 318 333 150 247 210 l 44 318 b 464 -17 44 101 206 -17 b 879 304 725 -17 879 99 z m 722 1281 l 596 1281 l 458 1183 l 322 1281 l 192 1281 l 364 1093 l 542 1093 z "},"š":{"ha":772,"x_min":null,"x_max":null,"o":"m 722 222 l 722 232 b 575 411 722 318 674 382 l 329 482 b 261 540 275 497 261 510 b 374 610 261 582 306 610 b 514 508 467 610 513 576 l 701 508 b 375 763 699 667 576 763 b 67 513 185 763 67 667 b 231 328 67 421 92 371 l 463 256 b 528 204 511 240 528 225 b 383 140 528 158 474 140 b 231 238 294 140 247 157 l 40 238 b 394 -12 46 74 167 -12 b 722 222 606 -12 722 71 z m 621 1044 l 501 1044 l 388 938 l 274 1044 l 151 1044 l 294 831 l 471 831 z "},"Ţ":{"ha":849,"x_min":null,"x_max":null,"o":"m 831 839 l 831 1013 l 19 1013 l 19 839 l 326 839 l 326 0 l 375 0 l 310 -136 l 399 -136 b 469 -179 442 -136 469 -150 b 390 -236 469 -211 435 -236 b 244 -194 351 -236 318 -226 l 218 -279 b 410 -318 308 -310 349 -318 b 589 -176 525 -318 589 -260 b 483 -69 589 -115 549 -69 l 428 -69 l 463 0 l 535 0 l 535 839 z "},"ţ":{"ha":463,"x_min":null,"x_max":null,"o":"m 429 -176 b 324 -69 429 -115 389 -69 l 268 -69 l 300 -6 l 306 -6 b 418 0 349 -6 383 -1 l 418 136 b 374 132 399 133 388 132 b 310 214 322 132 310 147 l 310 606 l 418 606 l 418 735 l 310 735 l 310 936 l 115 936 l 115 735 l 19 735 l 19 606 l 115 606 l 115 161 b 217 6 115 75 149 25 l 150 -136 l 239 -136 b 310 -179 282 -136 310 -150 b 231 -236 310 -211 275 -236 b 85 -194 192 -236 158 -226 l 58 -279 b 250 -318 149 -310 189 -318 b 429 -176 365 -318 429 -260 z "},"Ť":{"ha":849,"x_min":null,"x_max":null,"o":"m 831 839 l 831 1013 l 19 1013 l 19 839 l 326 839 l 326 0 l 535 0 l 535 839 z m 692 1281 l 565 1281 l 428 1183 l 292 1281 l 161 1281 l 333 1093 l 511 1093 z "},"ť":{"ha":463,"x_min":null,"x_max":null,"o":"m 418 0 l 418 136 b 374 132 399 133 388 132 b 310 214 322 132 310 147 l 310 606 l 418 606 l 418 735 l 310 735 l 310 936 l 115 936 l 115 735 l 19 735 l 19 606 l 115 606 l 115 161 b 306 -6 115 43 178 -6 b 418 0 349 -6 383 -1 z m 521 992 l 521 1135 l 351 1135 l 351 979 l 444 979 b 351 856 446 910 415 868 l 351 792 b 521 992 450 794 521 878 z "},"Ũ":{"ha":1003,"x_min":null,"x_max":null,"o":"m 908 342 l 908 1013 l 700 1013 l 700 342 b 507 161 700 219 638 161 b 314 342 376 161 314 219 l 314 1013 l 106 1013 l 106 342 b 507 -17 106 103 275 -17 b 908 342 739 -17 908 103 z m 750 1275 l 663 1275 b 613 1208 658 1231 642 1208 b 565 1217 603 1208 575 1213 l 467 1251 b 389 1269 417 1269 415 1269 b 258 1097 313 1269 264 1206 l 346 1097 b 401 1160 353 1142 368 1160 b 443 1151 414 1160 426 1157 l 542 1115 b 618 1099 571 1104 597 1099 b 750 1275 700 1099 744 1157 z "},"ũ":{"ha":849,"x_min":null,"x_max":null,"o":"m 751 0 l 751 750 l 557 750 l 557 300 b 400 153 557 211 494 153 b 275 288 317 153 275 197 l 275 750 l 81 750 l 81 247 b 332 -12 81 82 172 -12 b 557 99 433 -12 501 25 l 557 0 z m 672 1026 l 585 1026 b 535 960 581 982 564 960 b 488 968 525 960 497 964 l 389 1003 b 311 1021 339 1021 338 1021 b 181 849 235 1021 186 957 l 268 849 b 324 911 275 893 290 911 b 365 903 336 911 349 908 l 464 867 b 540 850 493 856 519 850 b 672 1026 622 850 667 908 z "},"Ū":{"ha":1003,"x_min":null,"x_max":null,"o":"m 908 342 l 908 1013 l 700 1013 l 700 342 b 507 161 700 219 638 161 b 314 342 376 161 314 219 l 314 1013 l 106 1013 l 106 342 b 507 -17 106 103 275 -17 b 908 342 739 -17 908 103 z m 708 1132 l 708 1242 l 293 1242 l 293 1132 z "},"ū":{"ha":849,"x_min":null,"x_max":null,"o":"m 751 0 l 751 750 l 557 750 l 557 300 b 400 153 557 211 494 153 b 275 288 317 153 275 197 l 275 750 l 81 750 l 81 247 b 332 -12 81 82 172 -12 b 557 99 433 -12 501 25 l 557 0 z m 631 883 l 631 993 l 215 993 l 215 883 z "},"Ŭ":{"ha":1003,"x_min":null,"x_max":null,"o":"m 908 342 l 908 1013 l 700 1013 l 700 342 b 507 161 700 219 638 161 b 314 342 376 161 314 219 l 314 1013 l 106 1013 l 106 342 b 507 -17 106 103 275 -17 b 908 342 739 -17 908 103 z m 751 1271 l 653 1271 b 501 1215 647 1232 592 1215 b 349 1271 407 1215 357 1231 l 250 1271 b 499 1101 253 1150 358 1101 b 751 1271 653 1101 740 1160 z "},"ŭ":{"ha":849,"x_min":null,"x_max":null,"o":"m 751 0 l 751 750 l 557 750 l 557 300 b 400 153 557 211 494 153 b 275 288 317 153 275 197 l 275 750 l 81 750 l 81 247 b 332 -12 81 82 172 -12 b 557 99 433 -12 501 25 l 557 0 z m 649 1043 l 538 1043 b 421 954 538 983 483 954 b 304 1043 358 954 304 983 l 193 1043 b 421 833 193 926 304 833 b 649 1043 538 833 649 926 z "},"Ů":{"ha":1003,"x_min":null,"x_max":null,"o":"m 908 342 l 908 1013 l 700 1013 l 700 342 b 507 161 700 219 638 161 b 314 342 376 161 314 219 l 314 1013 l 106 1013 l 106 342 b 507 -17 106 103 275 -17 b 908 342 739 -17 908 103 z m 640 1197 b 504 1336 640 1275 581 1336 b 364 1199 425 1336 364 1275 b 503 1061 364 1122 425 1061 b 640 1197 576 1061 640 1122 z m 567 1199 b 504 1135 567 1164 538 1135 b 438 1199 467 1135 438 1164 b 504 1263 438 1233 467 1263 b 567 1199 539 1263 567 1233 z "},"ů":{"ha":849,"x_min":null,"x_max":null,"o":"m 751 0 l 751 750 l 557 750 l 557 300 b 400 153 557 211 494 153 b 275 288 317 153 275 197 l 275 750 l 81 750 l 81 247 b 332 -12 81 82 172 -12 b 557 99 433 -12 501 25 l 557 0 z m 563 936 b 426 1075 563 1014 503 1075 b 286 938 347 1075 286 1014 b 425 800 286 861 347 800 b 563 936 499 800 563 861 z m 489 938 b 426 874 489 903 460 874 b 360 938 389 874 360 903 b 426 1001 360 972 389 1001 b 489 938 461 1001 489 972 z "},"Ű":{"ha":1003,"x_min":null,"x_max":null,"o":"m 908 342 l 908 1013 l 700 1013 l 700 342 b 507 161 700 219 638 161 b 314 342 376 161 314 219 l 314 1013 l 106 1013 l 106 342 b 507 -17 106 103 275 -17 b 908 342 739 -17 908 103 z m 578 1307 l 403 1307 l 306 1093 l 424 1093 z m 853 1307 l 678 1307 l 581 1093 l 699 1093 z "},"ű":{"ha":849,"x_min":null,"x_max":null,"o":"m 751 0 l 751 750 l 557 750 l 557 300 b 400 153 557 211 494 153 b 275 288 317 153 275 197 l 275 750 l 81 750 l 81 247 b 332 -12 81 82 172 -12 b 557 99 433 -12 501 25 l 557 0 z m 501 1044 l 326 1044 l 229 831 l 347 831 z m 776 1044 l 601 1044 l 504 831 l 622 831 z "},"Ų":{"ha":1003,"x_min":null,"x_max":null,"o":"m 908 342 l 908 1013 l 700 1013 l 700 342 b 507 161 700 219 638 161 b 314 342 376 161 314 219 l 314 1013 l 106 1013 l 106 342 b 507 -17 106 103 275 -17 l 524 -17 b 440 -176 461 -76 440 -119 b 644 -319 440 -278 529 -319 l 732 -319 l 732 -194 l 644 -194 b 572 -128 596 -194 572 -175 b 696 15 572 -60 631 -10 b 908 342 825 65 908 175 z "},"ų":{"ha":849,"x_min":null,"x_max":null,"o":"m 765 -319 l 765 -194 l 678 -194 b 606 -128 629 -194 606 -175 b 635 -58 606 -99 615 -78 b 751 0 665 -26 707 -6 l 751 750 l 557 750 l 557 300 b 400 153 557 211 494 153 b 275 288 317 153 275 197 l 275 750 l 81 750 l 81 247 b 332 -12 81 82 172 -12 b 557 99 433 -12 501 25 l 557 0 b 474 -176 504 -43 474 -108 b 678 -319 474 -278 563 -319 z "},"Ŵ":{"ha":1311,"x_min":null,"x_max":null,"o":"m 1294 1013 l 1074 1013 l 922 253 l 758 1013 l 553 1013 l 396 254 l 239 1013 l 18 1013 l 304 0 l 492 0 l 657 790 l 826 0 l 1014 0 z m 921 1093 l 749 1281 l 571 1281 l 390 1093 l 517 1093 l 654 1190 l 790 1093 z "},"ŵ":{"ha":1081,"x_min":null,"x_max":null,"o":"m 1064 750 l 863 750 l 749 225 l 636 750 l 442 750 l 328 225 l 208 750 l 7 750 l 218 0 l 418 0 l 538 529 l 650 0 l 851 0 z m 775 831 l 632 1044 l 456 1044 l 306 831 l 425 831 l 539 938 l 653 831 z "},"Ŷ":{"ha":926,"x_min":null,"x_max":null,"o":"m 903 1013 l 669 1013 l 476 565 l 269 1013 l 38 1013 l 374 375 l 374 0 l 582 0 l 582 375 z m 743 1093 l 571 1281 l 393 1281 l 213 1093 l 339 1093 l 476 1190 l 613 1093 z "},"ŷ":{"ha":772,"x_min":null,"x_max":null,"o":"m 747 750 l 547 750 l 392 204 l 226 750 l 13 750 l 292 -32 l 292 -36 b 171 -161 292 -107 239 -161 b 119 -153 156 -161 144 -160 l 119 -299 b 189 -304 149 -303 165 -304 b 439 -137 319 -304 388 -281 z m 621 831 l 478 1044 l 301 1044 l 151 831 l 271 831 l 385 938 l 499 831 z "},"Ÿ":{"ha":926,"x_min":null,"x_max":null,"o":"m 903 1013 l 669 1013 l 476 565 l 269 1013 l 38 1013 l 374 375 l 374 0 l 582 0 l 582 375 z m 431 1107 l 431 1267 l 256 1267 l 256 1107 z m 701 1107 l 701 1267 l 526 1267 l 526 1107 z "},"Ź":{"ha":849,"x_min":null,"x_max":null,"o":"m 803 0 l 803 174 l 286 174 l 803 839 l 803 1013 l 42 1013 l 42 839 l 560 839 l 42 174 l 42 0 z m 683 1279 l 454 1279 l 349 1092 l 496 1092 z "},"ź":{"ha":694,"x_min":null,"x_max":null,"o":"m 650 0 l 650 157 l 269 157 l 638 593 l 638 750 l 54 750 l 54 593 l 400 593 l 29 157 l 29 0 z m 592 1044 l 375 1044 l 278 831 l 417 831 z "},"Ż":{"ha":849,"x_min":null,"x_max":null,"o":"m 803 0 l 803 174 l 286 174 l 803 839 l 803 1013 l 42 1013 l 42 839 l 560 839 l 42 174 l 42 0 z m 521 1089 l 521 1283 l 326 1283 l 326 1089 z "},"ż":{"ha":694,"x_min":null,"x_max":null,"o":"m 650 0 l 650 157 l 269 157 l 638 593 l 638 750 l 54 750 l 54 593 l 400 593 l 29 157 l 29 0 z m 444 840 l 444 1035 l 250 1035 l 250 840 z "},"Ž":{"ha":849,"x_min":null,"x_max":null,"o":"m 803 0 l 803 174 l 286 174 l 803 839 l 803 1013 l 42 1013 l 42 839 l 560 839 l 42 174 l 42 0 z m 689 1281 l 563 1281 l 425 1183 l 289 1281 l 158 1281 l 331 1093 l 508 1093 z "},"ž":{"ha":694,"x_min":null,"x_max":null,"o":"m 650 0 l 650 157 l 269 157 l 638 593 l 638 750 l 54 750 l 54 593 l 400 593 l 29 157 l 29 0 z m 582 1044 l 463 1044 l 349 938 l 235 1044 l 113 1044 l 256 831 l 432 831 z "},"ſ":{"ha":463,"x_min":null,"x_max":null,"o":"m 428 863 l 428 1008 b 317 1013 392 1011 343 1013 b 125 825 188 1013 125 951 l 125 0 l 319 0 l 319 808 b 372 867 319 847 336 867 b 428 863 389 867 411 865 z "},"–":{"ha":772,"x_min":null,"x_max":null,"o":"m 774 288 l 774 432 l -12 432 l -12 288 z "},"—":{"ha":1389,"x_min":null,"x_max":null,"o":"m 1393 288 l 1393 432 l -10 432 l -10 288 z "},"‘":{"ha":386,"x_min":null,"x_max":null,"o":"m 281 651 l 281 825 l 169 825 b 281 949 167 894 203 935 l 281 1013 b 156 965 233 1010 189 993 b 93 803 111 928 93 882 l 93 651 z "},"’":{"ha":386,"x_min":null,"x_max":null,"o":"m 279 861 l 279 1013 l 92 1013 l 92 839 l 203 839 b 92 715 206 769 169 729 l 92 651 b 217 699 139 654 183 671 b 279 861 261 736 279 782 z "},"“":{"ha":694,"x_min":null,"x_max":null,"o":"m 286 651 l 286 825 l 175 825 b 286 949 172 894 208 935 l 286 1013 b 161 965 239 1010 194 993 b 99 803 117 928 99 882 l 99 651 z m 601 651 l 601 825 l 490 825 b 601 949 488 894 524 935 l 601 1013 b 476 965 554 1010 510 993 b 414 803 432 928 414 882 l 414 651 z "},"”":{"ha":694,"x_min":null,"x_max":null,"o":"m 289 861 l 289 1013 l 101 1013 l 101 839 l 213 839 b 101 715 215 769 179 729 l 101 651 b 226 699 149 654 193 671 b 289 861 271 736 289 782 z m 611 861 l 611 1013 l 424 1013 l 424 839 l 535 839 b 424 715 538 769 501 729 l 424 651 b 549 699 471 654 515 671 b 611 861 593 736 611 782 z "},"…":{"ha":1389,"x_min":null,"x_max":null,"o":"m 336 0 l 336 203 l 128 203 l 128 0 z m 799 0 l 799 203 l 590 203 l 590 0 z m 1261 0 l 1261 203 l 1053 203 l 1053 0 z "},"€":{"ha":772,"x_min":null,"x_max":null,"o":"m 758 911 b 506 1006 658 985 603 1006 b 108 631 306 1006 160 868 l 42 631 l 8 536 l 96 536 b 94 490 94 519 94 507 b 97 442 94 474 94 461 l 42 442 l 8 347 l 108 347 b 485 -12 153 126 285 -12 b 757 72 539 -12 656 10 l 696 242 b 493 169 588 183 549 169 b 307 347 410 169 343 221 l 558 347 l 593 442 l 292 442 b 289 479 289 456 289 465 b 293 536 289 499 290 514 l 626 536 l 660 631 l 311 631 b 493 825 344 758 407 825 b 696 732 556 825 608 801 z "}}}
